  0
SECTION
  2
BLOCKS
  0
ENDSEC
  0
SECTION
  2
ENTITIES
  0
LINE
  8
0
 10
12.2811
 20
-19.8314
 11
74.8805
 21
-8.79344
  0
LINE
  8
0
 10
74.8805
 20
-8.79344
 11
75.4203
 21
-8.62633
  0
LINE
  8
0
 10
75.4203
 20
-8.62633
 11
75.935
 21
-8.39287
  0
LINE
  8
0
 10
75.935
 20
-8.39287
 11
106.279
 21
6.58897
  0
LINE
  8
0
 10
106.279
 20
6.58897
 11
106.761
 21
6.88509
  0
LINE
  8
0
 10
106.761
 20
6.88509
 11
107.201
 21
7.23918
  0
LINE
  8
0
 10
107.201
 20
7.23918
 11
107.594
 21
7.64569
  0
LINE
  8
0
 10
107.594
 20
7.64569
 11
107.932
 21
8.09819
  0
LINE
  8
0
 10
107.932
 20
8.09819
 11
108.211
 21
8.58957
  0
LINE
  8
0
 10
108.211
 20
8.58957
 11
108.427
 21
9.11203
  0
LINE
  8
0
 10
108.427
 20
9.11203
 11
108.575
 21
9.65736
  0
LINE
  8
0
 10
108.575
 20
9.65736
 11
108.653
 21
10.217
  0
LINE
  8
0
 10
108.653
 20
10.217
 11
108.661
 21
10.782
  0
LINE
  8
0
 10
108.661
 20
10.782
 11
108.598
 21
11.3436
  0
LINE
  8
0
 10
108.598
 20
11.3436
 11
97.6586
 21
73.3865
  0
LINE
  8
0
 10
97.6586
 20
73.3865
 11
97.5257
 21
73.9358
  0
LINE
  8
0
 10
97.5257
 20
73.9358
 11
97.325
 21
74.4641
  0
LINE
  8
0
 10
97.325
 20
74.4641
 11
97.0597
 21
74.963
  0
LINE
  8
0
 10
97.0597
 20
74.963
 11
96.7339
 21
75.4248
  0
LINE
  8
0
 10
96.7339
 20
75.4248
 11
96.3529
 21
75.8421
  0
LINE
  8
0
 10
96.3529
 20
75.8421
 11
95.9225
 21
76.2084
  0
LINE
  8
0
 10
95.9225
 20
76.2084
 11
95.4497
 21
76.5178
  0
LINE
  8
0
 10
95.4497
 20
76.5178
 11
94.9417
 21
76.7656
  0
LINE
  8
0
 10
94.9417
 20
76.7656
 11
94.4068
 21
76.9477
  0
LINE
  8
0
 10
94.4068
 20
76.9477
 11
93.8532
 21
77.0613
  0
LINE
  8
0
 10
93.8532
 20
77.0613
 11
93.2897
 21
77.1047
  0
LINE
  8
0
 10
93.2897
 20
77.1047
 11
-93.2897
 21
77.1047
  0
LINE
  8
0
 10
-93.2897
 20
77.1047
 11
-93.8532
 21
77.0613
  0
LINE
  8
0
 10
-93.8532
 20
77.0613
 11
-94.4068
 21
76.9477
  0
LINE
  8
0
 10
-94.4068
 20
76.9477
 11
-94.9417
 21
76.7656
  0
LINE
  8
0
 10
-94.9417
 20
76.7656
 11
-95.4497
 21
76.5178
  0
LINE
  8
0
 10
-95.4497
 20
76.5178
 11
-95.9225
 21
76.2084
  0
LINE
  8
0
 10
-95.9225
 20
76.2084
 11
-96.3529
 21
75.8421
  0
LINE
  8
0
 10
-96.3529
 20
75.8421
 11
-96.7339
 21
75.4248
  0
LINE
  8
0
 10
-96.7339
 20
75.4248
 11
-97.0597
 21
74.963
  0
LINE
  8
0
 10
-97.0597
 20
74.963
 11
-97.325
 21
74.4641
  0
LINE
  8
0
 10
-97.325
 20
74.4641
 11
-97.5257
 21
73.9358
  0
LINE
  8
0
 10
-97.5257
 20
73.9358
 11
-97.6586
 21
73.3865
  0
LINE
  8
0
 10
-97.6586
 20
73.3865
 11
-108.598
 21
11.3436
  0
LINE
  8
0
 10
-108.598
 20
11.3436
 11
-108.661
 21
10.782
  0
LINE
  8
0
 10
-108.661
 20
10.782
 11
-108.653
 21
10.217
  0
LINE
  8
0
 10
-108.653
 20
10.217
 11
-108.575
 21
9.65736
  0
LINE
  8
0
 10
-108.575
 20
9.65736
 11
-108.427
 21
9.11203
  0
LINE
  8
0
 10
-108.427
 20
9.11203
 11
-108.211
 21
8.58957
  0
LINE
  8
0
 10
-108.211
 20
8.58957
 11
-107.932
 21
8.09819
  0
LINE
  8
0
 10
-107.932
 20
8.09819
 11
-107.594
 21
7.64569
  0
LINE
  8
0
 10
-107.594
 20
7.64569
 11
-107.201
 21
7.23918
  0
LINE
  8
0
 10
-107.201
 20
7.23918
 11
-106.761
 21
6.88509
  0
LINE
  8
0
 10
-106.761
 20
6.88509
 11
-106.279
 21
6.58897
  0
LINE
  8
0
 10
-106.279
 20
6.58897
 11
-75.935
 21
-8.39287
  0
LINE
  8
0
 10
-75.935
 20
-8.39287
 11
-75.4203
 21
-8.62633
  0
LINE
  8
0
 10
-75.4203
 20
-8.62633
 11
-74.8805
 21
-8.79344
  0
LINE
  8
0
 10
-74.8805
 20
-8.79344
 11
-12.2811
 21
-19.8314
  0
LINE
  8
0
 10
-12.2811
 20
-19.8314
 11
-11.7166
 21
-19.859
  0
LINE
  8
0
 10
-11.7166
 20
-19.859
 11
11.7166
 21
-19.859
  0
LINE
  8
0
 10
11.7166
 20
-19.859
 11
12.2811
 21
-19.8314
  0
LINE
  8
0
 10
93.0182
 20
71.1197
 11
92.8336
 21
71.1576
  0
LINE
  8
0
 10
92.8336
 20
71.1576
 11
92.6553
 21
71.2183
  0
LINE
  8
0
 10
92.6553
 20
71.2183
 11
92.486
 21
71.3009
  0
LINE
  8
0
 10
92.486
 20
71.3009
 11
92.3284
 21
71.404
  0
LINE
  8
0
 10
92.3284
 20
71.404
 11
92.1849
 21
71.5261
  0
LINE
  8
0
 10
92.1849
 20
71.5261
 11
92.0579
 21
71.6652
  0
LINE
  8
0
 10
92.0579
 20
71.6652
 11
91.9493
 21
71.8191
  0
LINE
  8
0
 10
91.9493
 20
71.8191
 11
91.8609
 21
71.9854
  0
LINE
  8
0
 10
91.8609
 20
71.9854
 11
91.794
 21
72.1615
  0
LINE
  8
0
 10
91.794
 20
72.1615
 11
91.7497
 21
72.3446
  0
LINE
  8
0
 10
91.7497
 20
72.3446
 11
91.7287
 21
72.5318
  0
LINE
  8
0
 10
91.7287
 20
72.5318
 11
91.7313
 21
72.7202
  0
LINE
  8
0
 10
91.7313
 20
72.7202
 11
91.7576
 21
72.9067
  0
LINE
  8
0
 10
91.7576
 20
72.9067
 11
91.8069
 21
73.0885
  0
LINE
  8
0
 10
91.8069
 20
73.0885
 11
91.8787
 21
73.2627
  0
LINE
  8
0
 10
91.8787
 20
73.2627
 11
91.9718
 21
73.4265
  0
LINE
  8
0
 10
91.9718
 20
73.4265
 11
92.0846
 21
73.5773
  0
LINE
  8
0
 10
92.0846
 20
73.5773
 11
92.2155
 21
73.7128
  0
LINE
  8
0
 10
92.2155
 20
73.7128
 11
92.3623
 21
73.8308
  0
LINE
  8
0
 10
92.3623
 20
73.8308
 11
92.5227
 21
73.9295
  0
LINE
  8
0
 10
92.5227
 20
73.9295
 11
92.6943
 21
74.0073
  0
LINE
  8
0
 10
92.6943
 20
74.0073
 11
92.8742
 21
74.063
  0
LINE
  8
0
 10
92.8742
 20
74.063
 11
93.0597
 21
74.0958
  0
LINE
  8
0
 10
93.0597
 20
74.0958
 11
93.2479
 21
74.105
  0
LINE
  8
0
 10
93.2479
 20
74.105
 11
93.4357
 21
74.0905
  0
LINE
  8
0
 10
93.4357
 20
74.0905
 11
93.6202
 21
74.0526
  0
LINE
  8
0
 10
93.6202
 20
74.0526
 11
93.7985
 21
73.9919
  0
LINE
  8
0
 10
93.7985
 20
73.9919
 11
93.9678
 21
73.9093
  0
LINE
  8
0
 10
93.9678
 20
73.9093
 11
94.1255
 21
73.8062
  0
LINE
  8
0
 10
94.1255
 20
73.8062
 11
94.2689
 21
73.6841
  0
LINE
  8
0
 10
94.2689
 20
73.6841
 11
94.3959
 21
73.545
  0
LINE
  8
0
 10
94.3959
 20
73.545
 11
94.5045
 21
73.3911
  0
LINE
  8
0
 10
94.5045
 20
73.3911
 11
94.5929
 21
73.2248
  0
LINE
  8
0
 10
94.5929
 20
73.2248
 11
94.6598
 21
73.0487
  0
LINE
  8
0
 10
94.6598
 20
73.0487
 11
94.7041
 21
72.8656
  0
LINE
  8
0
 10
94.7041
 20
72.8656
 11
94.7251
 21
72.6784
  0
LINE
  8
0
 10
94.7251
 20
72.6784
 11
94.7225
 21
72.49
  0
LINE
  8
0
 10
94.7225
 20
72.49
 11
94.6963
 21
72.3035
  0
LINE
  8
0
 10
94.6963
 20
72.3035
 11
94.6469
 21
72.1217
  0
LINE
  8
0
 10
94.6469
 20
72.1217
 11
94.5751
 21
71.9476
  0
LINE
  8
0
 10
94.5751
 20
71.9476
 11
94.4821
 21
71.7838
  0
LINE
  8
0
 10
94.4821
 20
71.7838
 11
94.3692
 21
71.6329
  0
LINE
  8
0
 10
94.3692
 20
71.6329
 11
94.2384
 21
71.4974
  0
LINE
  8
0
 10
94.2384
 20
71.4974
 11
94.0916
 21
71.3794
  0
LINE
  8
0
 10
94.0916
 20
71.3794
 11
93.9311
 21
71.2807
  0
LINE
  8
0
 10
93.9311
 20
71.2807
 11
93.7596
 21
71.2029
  0
LINE
  8
0
 10
93.7596
 20
71.2029
 11
93.5796
 21
71.1472
  0
LINE
  8
0
 10
93.5796
 20
71.1472
 11
93.3941
 21
71.1144
  0
LINE
  8
0
 10
93.3941
 20
71.1144
 11
93.206
 21
71.1053
  0
LINE
  8
0
 10
93.206
 20
71.1053
 11
93.0182
 21
71.1197
  0
LINE
  8
0
 10
28.0461
 20
71.1197
 11
27.8616
 21
71.1576
  0
LINE
  8
0
 10
27.8616
 20
71.1576
 11
27.6833
 21
71.2183
  0
LINE
  8
0
 10
27.6833
 20
71.2183
 11
27.5139
 21
71.3009
  0
LINE
  8
0
 10
27.5139
 20
71.3009
 11
27.3563
 21
71.404
  0
LINE
  8
0
 10
27.3563
 20
71.404
 11
27.2129
 21
71.5261
  0
LINE
  8
0
 10
27.2129
 20
71.5261
 11
27.0858
 21
71.6652
  0
LINE
  8
0
 10
27.0858
 20
71.6652
 11
26.9773
 21
71.8191
  0
LINE
  8
0
 10
26.9773
 20
71.8191
 11
26.8888
 21
71.9855
  0
LINE
  8
0
 10
26.8888
 20
71.9855
 11
26.8219
 21
72.1616
  0
LINE
  8
0
 10
26.8219
 20
72.1616
 11
26.7776
 21
72.3447
  0
LINE
  8
0
 10
26.7776
 20
72.3447
 11
26.7567
 21
72.5318
  0
LINE
  8
0
 10
26.7567
 20
72.5318
 11
26.7593
 21
72.7202
  0
LINE
  8
0
 10
26.7593
 20
72.7202
 11
26.7855
 21
72.9067
  0
LINE
  8
0
 10
26.7855
 20
72.9067
 11
26.8349
 21
73.0885
  0
LINE
  8
0
 10
26.8349
 20
73.0885
 11
26.9067
 21
73.2627
  0
LINE
  8
0
 10
26.9067
 20
73.2627
 11
26.9997
 21
73.4265
  0
LINE
  8
0
 10
26.9997
 20
73.4265
 11
27.1125
 21
73.5773
  0
LINE
  8
0
 10
27.1125
 20
73.5773
 11
27.2434
 21
73.7128
  0
LINE
  8
0
 10
27.2434
 20
73.7128
 11
27.3902
 21
73.8308
  0
LINE
  8
0
 10
27.3902
 20
73.8308
 11
27.5506
 21
73.9295
  0
LINE
  8
0
 10
27.5506
 20
73.9295
 11
27.7222
 21
74.0074
  0
LINE
  8
0
 10
27.7222
 20
74.0074
 11
27.9021
 21
74.0631
  0
LINE
  8
0
 10
27.9021
 20
74.0631
 11
28.0876
 21
74.0958
  0
LINE
  8
0
 10
28.0876
 20
74.0958
 11
28.2758
 21
74.105
  0
LINE
  8
0
 10
28.2758
 20
74.105
 11
28.4636
 21
74.0905
  0
LINE
  8
0
 10
28.4636
 20
74.0905
 11
28.6481
 21
74.0526
  0
LINE
  8
0
 10
28.6481
 20
74.0526
 11
28.8265
 21
73.9919
  0
LINE
  8
0
 10
28.8265
 20
73.9919
 11
28.9958
 21
73.9094
  0
LINE
  8
0
 10
28.9958
 20
73.9094
 11
29.1534
 21
73.8062
  0
LINE
  8
0
 10
29.1534
 20
73.8062
 11
29.2968
 21
73.6841
  0
LINE
  8
0
 10
29.2968
 20
73.6841
 11
29.4239
 21
73.545
  0
LINE
  8
0
 10
29.4239
 20
73.545
 11
29.5324
 21
73.3911
  0
LINE
  8
0
 10
29.5324
 20
73.3911
 11
29.6209
 21
73.2248
  0
LINE
  8
0
 10
29.6209
 20
73.2248
 11
29.6878
 21
73.0487
  0
LINE
  8
0
 10
29.6878
 20
73.0487
 11
29.7321
 21
72.8656
  0
LINE
  8
0
 10
29.7321
 20
72.8656
 11
29.7531
 21
72.6784
  0
LINE
  8
0
 10
29.7531
 20
72.6784
 11
29.7504
 21
72.49
  0
LINE
  8
0
 10
29.7504
 20
72.49
 11
29.7242
 21
72.3035
  0
LINE
  8
0
 10
29.7242
 20
72.3035
 11
29.6748
 21
72.1217
  0
LINE
  8
0
 10
29.6748
 20
72.1217
 11
29.603
 21
71.9476
  0
LINE
  8
0
 10
29.603
 20
71.9476
 11
29.51
 21
71.7838
  0
LINE
  8
0
 10
29.51
 20
71.7838
 11
29.3972
 21
71.6329
  0
LINE
  8
0
 10
29.3972
 20
71.6329
 11
29.2663
 21
71.4974
  0
LINE
  8
0
 10
29.2663
 20
71.4974
 11
29.1195
 21
71.3794
  0
LINE
  8
0
 10
29.1195
 20
71.3794
 11
28.9591
 21
71.2807
  0
LINE
  8
0
 10
28.9591
 20
71.2807
 11
28.7875
 21
71.2029
  0
LINE
  8
0
 10
28.7875
 20
71.2029
 11
28.6076
 21
71.1472
  0
LINE
  8
0
 10
28.6076
 20
71.1472
 11
28.4221
 21
71.1145
  0
LINE
  8
0
 10
28.4221
 20
71.1145
 11
28.2339
 21
71.1053
  0
LINE
  8
0
 10
28.2339
 20
71.1053
 11
28.0461
 21
71.1197
  0
LINE
  8
0
 10
-93.3941
 20
71.1144
 11
-93.5796
 21
71.1472
  0
LINE
  8
0
 10
-93.5796
 20
71.1472
 11
-93.7596
 21
71.2029
  0
LINE
  8
0
 10
-93.7596
 20
71.2029
 11
-93.9311
 21
71.2807
  0
LINE
  8
0
 10
-93.9311
 20
71.2807
 11
-94.0916
 21
71.3794
  0
LINE
  8
0
 10
-94.0916
 20
71.3794
 11
-94.2384
 21
71.4974
  0
LINE
  8
0
 10
-94.2384
 20
71.4974
 11
-94.3692
 21
71.6329
  0
LINE
  8
0
 10
-94.3692
 20
71.6329
 11
-94.4821
 21
71.7838
  0
LINE
  8
0
 10
-94.4821
 20
71.7838
 11
-94.5751
 21
71.9476
  0
LINE
  8
0
 10
-94.5751
 20
71.9476
 11
-94.6469
 21
72.1217
  0
LINE
  8
0
 10
-94.6469
 20
72.1217
 11
-94.6963
 21
72.3035
  0
LINE
  8
0
 10
-94.6963
 20
72.3035
 11
-94.7225
 21
72.49
  0
LINE
  8
0
 10
-94.7225
 20
72.49
 11
-94.7251
 21
72.6784
  0
LINE
  8
0
 10
-94.7251
 20
72.6784
 11
-94.7041
 21
72.8656
  0
LINE
  8
0
 10
-94.7041
 20
72.8656
 11
-94.6598
 21
73.0487
  0
LINE
  8
0
 10
-94.6598
 20
73.0487
 11
-94.5929
 21
73.2248
  0
LINE
  8
0
 10
-94.5929
 20
73.2248
 11
-94.5045
 21
73.3911
  0
LINE
  8
0
 10
-94.5045
 20
73.3911
 11
-94.3959
 21
73.545
  0
LINE
  8
0
 10
-94.3959
 20
73.545
 11
-94.2689
 21
73.6841
  0
LINE
  8
0
 10
-94.2689
 20
73.6841
 11
-94.1255
 21
73.8062
  0
LINE
  8
0
 10
-94.1255
 20
73.8062
 11
-93.9678
 21
73.9093
  0
LINE
  8
0
 10
-93.9678
 20
73.9093
 11
-93.7985
 21
73.9919
  0
LINE
  8
0
 10
-93.7985
 20
73.9919
 11
-93.6202
 21
74.0526
  0
LINE
  8
0
 10
-93.6202
 20
74.0526
 11
-93.4357
 21
74.0905
  0
LINE
  8
0
 10
-93.4357
 20
74.0905
 11
-93.2479
 21
74.105
  0
LINE
  8
0
 10
-93.2479
 20
74.105
 11
-93.0597
 21
74.0958
  0
LINE
  8
0
 10
-93.0597
 20
74.0958
 11
-92.8742
 21
74.063
  0
LINE
  8
0
 10
-92.8742
 20
74.063
 11
-92.6943
 21
74.0073
  0
LINE
  8
0
 10
-92.6943
 20
74.0073
 11
-92.5227
 21
73.9295
  0
LINE
  8
0
 10
-92.5227
 20
73.9295
 11
-92.3623
 21
73.8308
  0
LINE
  8
0
 10
-92.3623
 20
73.8308
 11
-92.2155
 21
73.7128
  0
LINE
  8
0
 10
-92.2155
 20
73.7128
 11
-92.0846
 21
73.5773
  0
LINE
  8
0
 10
-92.0846
 20
73.5773
 11
-91.9718
 21
73.4265
  0
LINE
  8
0
 10
-91.9718
 20
73.4265
 11
-91.8787
 21
73.2627
  0
LINE
  8
0
 10
-91.8787
 20
73.2627
 11
-91.8069
 21
73.0885
  0
LINE
  8
0
 10
-91.8069
 20
73.0885
 11
-91.7576
 21
72.9067
  0
LINE
  8
0
 10
-91.7576
 20
72.9067
 11
-91.7313
 21
72.7202
  0
LINE
  8
0
 10
-91.7313
 20
72.7202
 11
-91.7287
 21
72.5318
  0
LINE
  8
0
 10
-91.7287
 20
72.5318
 11
-91.7497
 21
72.3446
  0
LINE
  8
0
 10
-91.7497
 20
72.3446
 11
-91.794
 21
72.1615
  0
LINE
  8
0
 10
-91.794
 20
72.1615
 11
-91.8609
 21
71.9854
  0
LINE
  8
0
 10
-91.8609
 20
71.9854
 11
-91.9493
 21
71.8191
  0
LINE
  8
0
 10
-91.9493
 20
71.8191
 11
-92.0579
 21
71.6652
  0
LINE
  8
0
 10
-92.0579
 20
71.6652
 11
-92.1849
 21
71.5261
  0
LINE
  8
0
 10
-92.1849
 20
71.5261
 11
-92.3284
 21
71.404
  0
LINE
  8
0
 10
-92.3284
 20
71.404
 11
-92.486
 21
71.3009
  0
LINE
  8
0
 10
-92.486
 20
71.3009
 11
-92.6553
 21
71.2183
  0
LINE
  8
0
 10
-92.6553
 20
71.2183
 11
-92.8336
 21
71.1576
  0
LINE
  8
0
 10
-92.8336
 20
71.1576
 11
-93.0182
 21
71.1197
  0
LINE
  8
0
 10
-93.0182
 20
71.1197
 11
-93.206
 21
71.1053
  0
LINE
  8
0
 10
-93.206
 20
71.1053
 11
-93.3941
 21
71.1144
  0
LINE
  8
0
 10
-28.4221
 20
71.1145
 11
-28.6076
 21
71.1472
  0
LINE
  8
0
 10
-28.6076
 20
71.1472
 11
-28.7875
 21
71.2029
  0
LINE
  8
0
 10
-28.7875
 20
71.2029
 11
-28.9591
 21
71.2807
  0
LINE
  8
0
 10
-28.9591
 20
71.2807
 11
-29.1195
 21
71.3794
  0
LINE
  8
0
 10
-29.1195
 20
71.3794
 11
-29.2663
 21
71.4974
  0
LINE
  8
0
 10
-29.2663
 20
71.4974
 11
-29.3972
 21
71.6329
  0
LINE
  8
0
 10
-29.3972
 20
71.6329
 11
-29.51
 21
71.7838
  0
LINE
  8
0
 10
-29.51
 20
71.7838
 11
-29.603
 21
71.9476
  0
LINE
  8
0
 10
-29.603
 20
71.9476
 11
-29.6748
 21
72.1217
  0
LINE
  8
0
 10
-29.6748
 20
72.1217
 11
-29.7242
 21
72.3035
  0
LINE
  8
0
 10
-29.7242
 20
72.3035
 11
-29.7504
 21
72.49
  0
LINE
  8
0
 10
-29.7504
 20
72.49
 11
-29.7531
 21
72.6784
  0
LINE
  8
0
 10
-29.7531
 20
72.6784
 11
-29.7321
 21
72.8656
  0
LINE
  8
0
 10
-29.7321
 20
72.8656
 11
-29.6878
 21
73.0487
  0
LINE
  8
0
 10
-29.6878
 20
73.0487
 11
-29.6209
 21
73.2248
  0
LINE
  8
0
 10
-29.6209
 20
73.2248
 11
-29.5324
 21
73.3911
  0
LINE
  8
0
 10
-29.5324
 20
73.3911
 11
-29.4239
 21
73.545
  0
LINE
  8
0
 10
-29.4239
 20
73.545
 11
-29.2968
 21
73.6841
  0
LINE
  8
0
 10
-29.2968
 20
73.6841
 11
-29.1534
 21
73.8062
  0
LINE
  8
0
 10
-29.1534
 20
73.8062
 11
-28.9958
 21
73.9094
  0
LINE
  8
0
 10
-28.9958
 20
73.9094
 11
-28.8265
 21
73.9919
  0
LINE
  8
0
 10
-28.8265
 20
73.9919
 11
-28.6481
 21
74.0526
  0
LINE
  8
0
 10
-28.6481
 20
74.0526
 11
-28.4636
 21
74.0905
  0
LINE
  8
0
 10
-28.4636
 20
74.0905
 11
-28.2758
 21
74.105
  0
LINE
  8
0
 10
-28.2758
 20
74.105
 11
-28.0876
 21
74.0958
  0
LINE
  8
0
 10
-28.0876
 20
74.0958
 11
-27.9021
 21
74.0631
  0
LINE
  8
0
 10
-27.9021
 20
74.0631
 11
-27.7222
 21
74.0074
  0
LINE
  8
0
 10
-27.7222
 20
74.0074
 11
-27.5506
 21
73.9295
  0
LINE
  8
0
 10
-27.5506
 20
73.9295
 11
-27.3902
 21
73.8308
  0
LINE
  8
0
 10
-27.3902
 20
73.8308
 11
-27.2434
 21
73.7128
  0
LINE
  8
0
 10
-27.2434
 20
73.7128
 11
-27.1125
 21
73.5773
  0
LINE
  8
0
 10
-27.1125
 20
73.5773
 11
-26.9997
 21
73.4265
  0
LINE
  8
0
 10
-26.9997
 20
73.4265
 11
-26.9067
 21
73.2627
  0
LINE
  8
0
 10
-26.9067
 20
73.2627
 11
-26.8349
 21
73.0885
  0
LINE
  8
0
 10
-26.8349
 20
73.0885
 11
-26.7855
 21
72.9067
  0
LINE
  8
0
 10
-26.7855
 20
72.9067
 11
-26.7593
 21
72.7202
  0
LINE
  8
0
 10
-26.7593
 20
72.7202
 11
-26.7567
 21
72.5318
  0
LINE
  8
0
 10
-26.7567
 20
72.5318
 11
-26.7776
 21
72.3447
  0
LINE
  8
0
 10
-26.7776
 20
72.3447
 11
-26.8219
 21
72.1616
  0
LINE
  8
0
 10
-26.8219
 20
72.1616
 11
-26.8888
 21
71.9855
  0
LINE
  8
0
 10
-26.8888
 20
71.9855
 11
-26.9773
 21
71.8191
  0
LINE
  8
0
 10
-26.9773
 20
71.8191
 11
-27.0858
 21
71.6652
  0
LINE
  8
0
 10
-27.0858
 20
71.6652
 11
-27.2129
 21
71.5261
  0
LINE
  8
0
 10
-27.2129
 20
71.5261
 11
-27.3563
 21
71.404
  0
LINE
  8
0
 10
-27.3563
 20
71.404
 11
-27.5139
 21
71.3009
  0
LINE
  8
0
 10
-27.5139
 20
71.3009
 11
-27.6833
 21
71.2183
  0
LINE
  8
0
 10
-27.6833
 20
71.2183
 11
-27.8616
 21
71.1576
  0
LINE
  8
0
 10
-27.8616
 20
71.1576
 11
-28.0461
 21
71.1197
  0
LINE
  8
0
 10
-28.0461
 20
71.1197
 11
-28.2339
 21
71.1053
  0
LINE
  8
0
 10
-28.2339
 20
71.1053
 11
-28.4221
 21
71.1145
  0
LINE
  8
0
 10
41.615
 20
66.0278
 11
55.3727
 21
68.4537
  0
LINE
  8
0
 10
55.3727
 20
68.4537
 11
57.7986
 21
54.696
  0
LINE
  8
0
 10
57.7986
 20
54.696
 11
44.0408
 21
52.2701
  0
LINE
  8
0
 10
44.0408
 20
52.2701
 11
41.615
 21
66.0278
  0
LINE
  8
0
 10
-57.7986
 20
54.696
 11
-55.3727
 21
68.4537
  0
LINE
  8
0
 10
-55.3727
 20
68.4537
 11
-41.615
 21
66.0278
  0
LINE
  8
0
 10
-41.615
 20
66.0278
 11
-44.0408
 21
52.2701
  0
LINE
  8
0
 10
-44.0408
 20
52.2701
 11
-57.7986
 21
54.696
  0
LINE
  8
0
 10
-77.2045
 20
54.056
 11
-74.7786
 21
67.8138
  0
LINE
  8
0
 10
-74.7786
 20
67.8138
 11
-61.0209
 21
65.3879
  0
LINE
  8
0
 10
-61.0209
 20
65.3879
 11
-63.4468
 21
51.6302
  0
LINE
  8
0
 10
-63.4468
 20
51.6302
 11
-77.2045
 21
54.056
  0
LINE
  8
0
 10
61.0209
 20
65.3879
 11
74.7786
 21
67.8138
  0
LINE
  8
0
 10
74.7786
 20
67.8138
 11
77.2045
 21
54.056
  0
LINE
  8
0
 10
77.2045
 20
54.056
 11
63.4468
 21
51.6302
  0
LINE
  8
0
 10
63.4468
 20
51.6302
 11
61.0209
 21
65.3879
  0
LINE
  8
0
 10
-96.6104
 20
53.4161
 11
-94.1846
 21
67.1739
  0
LINE
  8
0
 10
-94.1846
 20
67.1739
 11
-80.4268
 21
64.748
  0
LINE
  8
0
 10
-80.4268
 20
64.748
 11
-82.8527
 21
50.9903
  0
LINE
  8
0
 10
-82.8527
 20
50.9903
 11
-96.6104
 21
53.4161
  0
LINE
  8
0
 10
80.4268
 20
64.748
 11
94.1846
 21
67.1739
  0
LINE
  8
0
 10
94.1846
 20
67.1739
 11
96.6104
 21
53.4161
  0
LINE
  8
0
 10
96.6104
 20
53.4161
 11
82.8527
 21
50.9903
  0
LINE
  8
0
 10
82.8527
 20
50.9903
 11
80.4268
 21
64.748
  0
LINE
  8
0
 10
-39.7818
 20
47.4574
 11
-37.356
 21
61.2152
  0
LINE
  8
0
 10
-37.356
 20
61.2152
 11
-23.5982
 21
58.7893
  0
LINE
  8
0
 10
-23.5982
 20
58.7893
 11
-26.0241
 21
45.0316
  0
LINE
  8
0
 10
-26.0241
 20
45.0316
 11
-39.7818
 21
47.4574
  0
LINE
  8
0
 10
23.5982
 20
58.7893
 11
37.356
 21
61.2152
  0
LINE
  8
0
 10
37.356
 20
61.2152
 11
39.7818
 21
47.4574
  0
LINE
  8
0
 10
39.7818
 20
47.4574
 11
26.0241
 21
45.0316
  0
LINE
  8
0
 10
26.0241
 20
45.0316
 11
23.5982
 21
58.7893
  0
LINE
  8
0
 10
4.88687
 20
55.49
 11
18.6446
 21
57.9158
  0
LINE
  8
0
 10
18.6446
 20
57.9158
 11
21.0705
 21
44.1581
  0
LINE
  8
0
 10
21.0705
 20
44.1581
 11
7.31273
 21
41.7322
  0
LINE
  8
0
 10
7.31273
 20
41.7322
 11
4.88687
 21
55.49
  0
LINE
  8
0
 10
-21.0705
 20
44.1581
 11
-18.6446
 21
57.9158
  0
LINE
  8
0
 10
-18.6446
 20
57.9158
 11
-4.88687
 21
55.49
  0
LINE
  8
0
 10
-4.88687
 20
55.49
 11
-7.31273
 21
41.7322
  0
LINE
  8
0
 10
-7.31273
 20
41.7322
 11
-21.0705
 21
44.1581
  0
LINE
  8
0
 10
-61.0979
 20
35.9846
 11
-58.672
 21
49.7424
  0
LINE
  8
0
 10
-58.672
 20
49.7424
 11
-44.9143
 21
47.3165
  0
LINE
  8
0
 10
-44.9143
 20
47.3165
 11
-47.3401
 21
33.5588
  0
LINE
  8
0
 10
-47.3401
 20
33.5588
 11
-61.0979
 21
35.9846
  0
LINE
  8
0
 10
44.9143
 20
47.3165
 11
58.672
 21
49.7424
  0
LINE
  8
0
 10
58.672
 20
49.7424
 11
61.0979
 21
35.9846
  0
LINE
  8
0
 10
61.0979
 20
35.9846
 11
47.3401
 21
33.5588
  0
LINE
  8
0
 10
47.3401
 20
33.5588
 11
44.9143
 21
47.3165
  0
LINE
  8
0
 10
64.3202
 20
46.6766
 11
78.078
 21
49.1024
  0
LINE
  8
0
 10
78.078
 20
49.1024
 11
80.5038
 21
35.3447
  0
LINE
  8
0
 10
80.5038
 20
35.3447
 11
66.7461
 21
32.9188
  0
LINE
  8
0
 10
66.7461
 20
32.9188
 11
64.3202
 21
46.6766
  0
LINE
  8
0
 10
-80.5038
 20
35.3447
 11
-78.078
 21
49.1024
  0
LINE
  8
0
 10
-78.078
 20
49.1024
 11
-64.3202
 21
46.6766
  0
LINE
  8
0
 10
-64.3202
 20
46.6766
 11
-66.7461
 21
32.9188
  0
LINE
  8
0
 10
-66.7461
 20
32.9188
 11
-80.5038
 21
35.3447
  0
LINE
  8
0
 10
-99.9098
 20
34.7048
 11
-97.4839
 21
48.4625
  0
LINE
  8
0
 10
-97.4839
 20
48.4625
 11
-83.7262
 21
46.0367
  0
LINE
  8
0
 10
-83.7262
 20
46.0367
 11
-86.152
 21
32.2789
  0
LINE
  8
0
 10
-86.152
 20
32.2789
 11
-99.9098
 21
34.7048
  0
LINE
  8
0
 10
83.7262
 20
46.0367
 11
97.4839
 21
48.4625
  0
LINE
  8
0
 10
97.4839
 20
48.4625
 11
99.9098
 21
34.7048
  0
LINE
  8
0
 10
99.9098
 20
34.7048
 11
86.152
 21
32.2789
  0
LINE
  8
0
 10
86.152
 20
32.2789
 11
83.7262
 21
46.0367
  0
LINE
  8
0
 10
-43.0811
 20
28.7461
 11
-40.6553
 21
42.5038
  0
LINE
  8
0
 10
-40.6553
 20
42.5038
 11
-26.8975
 21
40.078
  0
LINE
  8
0
 10
-26.8975
 20
40.078
 11
-29.3234
 21
26.3202
  0
LINE
  8
0
 10
-29.3234
 20
26.3202
 11
-43.0811
 21
28.7461
  0
LINE
  8
0
 10
26.8975
 20
40.078
 11
40.6553
 21
42.5038
  0
LINE
  8
0
 10
40.6553
 20
42.5038
 11
43.0811
 21
28.7461
  0
LINE
  8
0
 10
43.0811
 20
28.7461
 11
29.3234
 21
26.3202
  0
LINE
  8
0
 10
29.3234
 20
26.3202
 11
26.8975
 21
40.078
  0
LINE
  8
0
 10
-24.3698
 20
25.4468
 11
-21.9439
 21
39.2045
  0
LINE
  8
0
 10
-21.9439
 20
39.2045
 11
-8.18619
 21
36.7786
  0
LINE
  8
0
 10
-8.18619
 20
36.7786
 11
-10.612
 21
23.0209
  0
LINE
  8
0
 10
-10.612
 20
23.0209
 11
-24.3698
 21
25.4468
  0
LINE
  8
0
 10
8.18619
 20
36.7786
 11
21.9439
 21
39.2045
  0
LINE
  8
0
 10
21.9439
 20
39.2045
 11
24.3698
 21
25.4468
  0
LINE
  8
0
 10
24.3698
 20
25.4468
 11
10.612
 21
23.0209
  0
LINE
  8
0
 10
10.612
 20
23.0209
 11
8.18619
 21
36.7786
  0
LINE
  8
0
 10
-64.3972
 20
17.2733
 11
-61.9713
 21
31.031
  0
LINE
  8
0
 10
-61.9713
 20
31.031
 11
-48.2136
 21
28.6052
  0
LINE
  8
0
 10
-48.2136
 20
28.6052
 11
-50.6395
 21
14.8474
  0
LINE
  8
0
 10
-50.6395
 20
14.8474
 11
-64.3972
 21
17.2733
  0
LINE
  8
0
 10
48.2136
 20
28.6052
 11
61.9713
 21
31.031
  0
LINE
  8
0
 10
61.9713
 20
31.031
 11
64.3972
 21
17.2733
  0
LINE
  8
0
 10
64.3972
 20
17.2733
 11
50.6395
 21
14.8474
  0
LINE
  8
0
 10
50.6395
 20
14.8474
 11
48.2136
 21
28.6052
  0
LINE
  8
0
 10
67.6195
 20
27.9652
 11
81.3773
 21
30.3911
  0
LINE
  8
0
 10
81.3773
 20
30.3911
 11
83.8031
 21
16.6334
  0
LINE
  8
0
 10
83.8031
 20
16.6334
 11
70.0454
 21
14.2075
  0
LINE
  8
0
 10
70.0454
 20
14.2075
 11
67.6195
 21
27.9652
  0
LINE
  8
0
 10
-83.8031
 20
16.6334
 11
-81.3773
 21
30.3911
  0
LINE
  8
0
 10
-81.3773
 20
30.3911
 11
-67.6195
 21
27.9652
  0
LINE
  8
0
 10
-67.6195
 20
27.9652
 11
-70.0454
 21
14.2075
  0
LINE
  8
0
 10
-70.0454
 20
14.2075
 11
-83.8031
 21
16.6334
  0
LINE
  8
0
 10
87.0255
 20
27.3253
 11
100.783
 21
29.7512
  0
LINE
  8
0
 10
100.783
 20
29.7512
 11
103.209
 21
15.9934
  0
LINE
  8
0
 10
103.209
 20
15.9934
 11
89.4513
 21
13.5676
  0
LINE
  8
0
 10
89.4513
 20
13.5676
 11
87.0255
 21
27.3253
  0
LINE
  8
0
 10
-103.209
 20
15.9934
 11
-100.783
 21
29.7512
  0
LINE
  8
0
 10
-100.783
 20
29.7512
 11
-87.0255
 21
27.3253
  0
LINE
  8
0
 10
-87.0255
 20
27.3253
 11
-89.4513
 21
13.5676
  0
LINE
  8
0
 10
-89.4513
 20
13.5676
 11
-103.209
 21
15.9934
  0
LINE
  8
0
 10
30.1968
 20
21.3666
 11
43.9546
 21
23.7925
  0
LINE
  8
0
 10
43.9546
 20
23.7925
 11
46.3804
 21
10.0347
  0
LINE
  8
0
 10
46.3804
 20
10.0347
 11
32.6227
 21
7.60886
  0
LINE
  8
0
 10
32.6227
 20
7.60886
 11
30.1968
 21
21.3666
  0
LINE
  8
0
 10
-46.3804
 20
10.0347
 11
-43.9546
 21
23.7925
  0
LINE
  8
0
 10
-43.9546
 20
23.7925
 11
-30.1968
 21
21.3666
  0
LINE
  8
0
 10
-30.1968
 20
21.3666
 11
-32.6227
 21
7.60886
  0
LINE
  8
0
 10
-32.6227
 20
7.60886
 11
-46.3804
 21
10.0347
  0
LINE
  8
0
 10
11.4855
 20
18.0673
 11
25.2432
 21
20.4932
  0
LINE
  8
0
 10
25.2432
 20
20.4932
 11
27.6691
 21
6.73541
  0
LINE
  8
0
 10
27.6691
 20
6.73541
 11
13.9114
 21
4.30956
  0
LINE
  8
0
 10
13.9114
 20
4.30956
 11
11.4855
 21
18.0673
  0
LINE
  8
0
 10
-27.6691
 20
6.73541
 11
-25.2432
 21
20.4932
  0
LINE
  8
0
 10
-25.2432
 20
20.4932
 11
-11.4855
 21
18.0673
  0
LINE
  8
0
 10
-11.4855
 20
18.0673
 11
-13.9114
 21
4.30956
  0
LINE
  8
0
 10
-13.9114
 20
4.30956
 11
-27.6691
 21
6.73541
  0
LINE
  8
0
 10
103.958
 20
9.07681
 11
103.773
 21
9.11469
  0
LINE
  8
0
 10
103.773
 20
9.11469
 11
103.595
 21
9.1754
  0
LINE
  8
0
 10
103.595
 20
9.1754
 11
103.426
 21
9.25798
  0
LINE
  8
0
 10
103.426
 20
9.25798
 11
103.268
 21
9.36113
  0
LINE
  8
0
 10
103.268
 20
9.36113
 11
103.125
 21
9.48322
  0
LINE
  8
0
 10
103.125
 20
9.48322
 11
102.998
 21
9.62231
  0
LINE
  8
0
 10
102.998
 20
9.62231
 11
102.889
 21
9.77623
  0
LINE
  8
0
 10
102.889
 20
9.77623
 11
102.801
 21
9.94255
  0
LINE
  8
0
 10
102.801
 20
9.94255
 11
102.734
 21
10.1187
  0
LINE
  8
0
 10
102.734
 20
10.1187
 11
102.69
 21
10.3018
  0
LINE
  8
0
 10
102.69
 20
10.3018
 11
102.669
 21
10.4889
  0
LINE
  8
0
 10
102.669
 20
10.4889
 11
102.671
 21
10.6773
  0
LINE
  8
0
 10
102.671
 20
10.6773
 11
102.697
 21
10.8638
  0
LINE
  8
0
 10
102.697
 20
10.8638
 11
102.747
 21
11.0456
  0
LINE
  8
0
 10
102.747
 20
11.0456
 11
102.819
 21
11.2198
  0
LINE
  8
0
 10
102.819
 20
11.2198
 11
102.912
 21
11.3836
  0
LINE
  8
0
 10
102.912
 20
11.3836
 11
103.024
 21
11.5344
  0
LINE
  8
0
 10
103.024
 20
11.5344
 11
103.155
 21
11.6699
  0
LINE
  8
0
 10
103.155
 20
11.6699
 11
103.302
 21
11.7879
  0
LINE
  8
0
 10
103.302
 20
11.7879
 11
103.463
 21
11.8866
  0
LINE
  8
0
 10
103.463
 20
11.8866
 11
103.634
 21
11.9644
  0
LINE
  8
0
 10
103.634
 20
11.9644
 11
103.814
 21
12.0202
  0
LINE
  8
0
 10
103.814
 20
12.0202
 11
104
 21
12.0529
  0
LINE
  8
0
 10
104
 20
12.0529
 11
104.188
 21
12.0621
  0
LINE
  8
0
 10
104.188
 20
12.0621
 11
104.376
 21
12.0476
  0
LINE
  8
0
 10
104.376
 20
12.0476
 11
104.56
 21
12.0098
  0
LINE
  8
0
 10
104.56
 20
12.0098
 11
104.738
 21
11.949
  0
LINE
  8
0
 10
104.738
 20
11.949
 11
104.908
 21
11.8665
  0
LINE
  8
0
 10
104.908
 20
11.8665
 11
105.065
 21
11.7633
  0
LINE
  8
0
 10
105.065
 20
11.7633
 11
105.209
 21
11.6412
  0
LINE
  8
0
 10
105.209
 20
11.6412
 11
105.336
 21
11.5021
  0
LINE
  8
0
 10
105.336
 20
11.5021
 11
105.444
 21
11.3482
  0
LINE
  8
0
 10
105.444
 20
11.3482
 11
105.533
 21
11.1819
  0
LINE
  8
0
 10
105.533
 20
11.1819
 11
105.6
 21
11.0058
  0
LINE
  8
0
 10
105.6
 20
11.0058
 11
105.644
 21
10.8227
  0
LINE
  8
0
 10
105.644
 20
10.8227
 11
105.665
 21
10.6355
  0
LINE
  8
0
 10
105.665
 20
10.6355
 11
105.662
 21
10.4471
  0
LINE
  8
0
 10
105.662
 20
10.4471
 11
105.636
 21
10.2606
  0
LINE
  8
0
 10
105.636
 20
10.2606
 11
105.587
 21
10.0788
  0
LINE
  8
0
 10
105.587
 20
10.0788
 11
105.515
 21
9.90466
  0
LINE
  8
0
 10
105.515
 20
9.90466
 11
105.422
 21
9.74088
  0
LINE
  8
0
 10
105.422
 20
9.74088
 11
105.309
 21
9.59004
  0
LINE
  8
0
 10
105.309
 20
9.59004
 11
105.178
 21
9.45454
  0
LINE
  8
0
 10
105.178
 20
9.45454
 11
105.031
 21
9.3365
  0
LINE
  8
0
 10
105.031
 20
9.3365
 11
104.871
 21
9.23779
  0
LINE
  8
0
 10
104.871
 20
9.23779
 11
104.699
 21
9.15999
  0
LINE
  8
0
 10
104.699
 20
9.15999
 11
104.519
 21
9.10426
  0
LINE
  8
0
 10
104.519
 20
9.10426
 11
104.334
 21
9.07156
  0
LINE
  8
0
 10
104.334
 20
9.07156
 11
104.146
 21
9.06236
  0
LINE
  8
0
 10
104.146
 20
9.06236
 11
103.958
 21
9.07681
  0
LINE
  8
0
 10
-104.334
 20
9.07156
 11
-104.519
 21
9.10426
  0
LINE
  8
0
 10
-104.519
 20
9.10426
 11
-104.699
 21
9.15999
  0
LINE
  8
0
 10
-104.699
 20
9.15999
 11
-104.871
 21
9.23779
  0
LINE
  8
0
 10
-104.871
 20
9.23779
 11
-105.031
 21
9.3365
  0
LINE
  8
0
 10
-105.031
 20
9.3365
 11
-105.178
 21
9.45454
  0
LINE
  8
0
 10
-105.178
 20
9.45454
 11
-105.309
 21
9.59004
  0
LINE
  8
0
 10
-105.309
 20
9.59004
 11
-105.422
 21
9.74088
  0
LINE
  8
0
 10
-105.422
 20
9.74088
 11
-105.515
 21
9.90466
  0
LINE
  8
0
 10
-105.515
 20
9.90466
 11
-105.587
 21
10.0788
  0
LINE
  8
0
 10
-105.587
 20
10.0788
 11
-105.636
 21
10.2606
  0
LINE
  8
0
 10
-105.636
 20
10.2606
 11
-105.662
 21
10.4471
  0
LINE
  8
0
 10
-105.662
 20
10.4471
 11
-105.665
 21
10.6355
  0
LINE
  8
0
 10
-105.665
 20
10.6355
 11
-105.644
 21
10.8227
  0
LINE
  8
0
 10
-105.644
 20
10.8227
 11
-105.6
 21
11.0058
  0
LINE
  8
0
 10
-105.6
 20
11.0058
 11
-105.533
 21
11.1819
  0
LINE
  8
0
 10
-105.533
 20
11.1819
 11
-105.444
 21
11.3482
  0
LINE
  8
0
 10
-105.444
 20
11.3482
 11
-105.336
 21
11.5021
  0
LINE
  8
0
 10
-105.336
 20
11.5021
 11
-105.209
 21
11.6412
  0
LINE
  8
0
 10
-105.209
 20
11.6412
 11
-105.065
 21
11.7633
  0
LINE
  8
0
 10
-105.065
 20
11.7633
 11
-104.908
 21
11.8665
  0
LINE
  8
0
 10
-104.908
 20
11.8665
 11
-104.738
 21
11.949
  0
LINE
  8
0
 10
-104.738
 20
11.949
 11
-104.56
 21
12.0098
  0
LINE
  8
0
 10
-104.56
 20
12.0098
 11
-104.376
 21
12.0476
  0
LINE
  8
0
 10
-104.376
 20
12.0476
 11
-104.188
 21
12.0621
  0
LINE
  8
0
 10
-104.188
 20
12.0621
 11
-104
 21
12.0529
  0
LINE
  8
0
 10
-104
 20
12.0529
 11
-103.814
 21
12.0202
  0
LINE
  8
0
 10
-103.814
 20
12.0202
 11
-103.634
 21
11.9644
  0
LINE
  8
0
 10
-103.634
 20
11.9644
 11
-103.463
 21
11.8866
  0
LINE
  8
0
 10
-103.463
 20
11.8866
 11
-103.302
 21
11.7879
  0
LINE
  8
0
 10
-103.302
 20
11.7879
 11
-103.155
 21
11.6699
  0
LINE
  8
0
 10
-103.155
 20
11.6699
 11
-103.024
 21
11.5344
  0
LINE
  8
0
 10
-103.024
 20
11.5344
 11
-102.912
 21
11.3836
  0
LINE
  8
0
 10
-102.912
 20
11.3836
 11
-102.819
 21
11.2198
  0
LINE
  8
0
 10
-102.819
 20
11.2198
 11
-102.747
 21
11.0456
  0
LINE
  8
0
 10
-102.747
 20
11.0456
 11
-102.697
 21
10.8638
  0
LINE
  8
0
 10
-102.697
 20
10.8638
 11
-102.671
 21
10.6773
  0
LINE
  8
0
 10
-102.671
 20
10.6773
 11
-102.669
 21
10.4889
  0
LINE
  8
0
 10
-102.669
 20
10.4889
 11
-102.69
 21
10.3018
  0
LINE
  8
0
 10
-102.69
 20
10.3018
 11
-102.734
 21
10.1187
  0
LINE
  8
0
 10
-102.734
 20
10.1187
 11
-102.801
 21
9.94255
  0
LINE
  8
0
 10
-102.801
 20
9.94255
 11
-102.889
 21
9.77623
  0
LINE
  8
0
 10
-102.889
 20
9.77623
 11
-102.998
 21
9.62231
  0
LINE
  8
0
 10
-102.998
 20
9.62231
 11
-103.125
 21
9.48322
  0
LINE
  8
0
 10
-103.125
 20
9.48322
 11
-103.268
 21
9.36113
  0
LINE
  8
0
 10
-103.268
 20
9.36113
 11
-103.426
 21
9.25798
  0
LINE
  8
0
 10
-103.426
 20
9.25798
 11
-103.595
 21
9.1754
  0
LINE
  8
0
 10
-103.595
 20
9.1754
 11
-103.773
 21
9.11469
  0
LINE
  8
0
 10
-103.773
 20
9.11469
 11
-103.958
 21
9.07681
  0
LINE
  8
0
 10
-103.958
 20
9.07681
 11
-104.146
 21
9.06236
  0
LINE
  8
0
 10
-104.146
 20
9.06236
 11
-104.334
 21
9.07156
  0
LINE
  8
0
 10
52.2075
 20
5.95457
 11
65.9652
 21
8.38045
  0
LINE
  8
0
 10
65.9652
 20
8.38045
 11
68.3911
 21
-5.37727
  0
LINE
  8
0
 10
68.3911
 20
-5.37727
 11
54.6334
 21
-7.80315
  0
LINE
  8
0
 10
54.6334
 20
-7.80315
 11
52.2075
 21
5.95457
  0
LINE
  8
0
 10
-68.3911
 20
-5.37727
 11
-65.9652
 21
8.38045
  0
LINE
  8
0
 10
-65.9652
 20
8.38045
 11
-52.2075
 21
5.95457
  0
LINE
  8
0
 10
-52.2075
 20
5.95457
 11
-54.6334
 21
-7.80315
  0
LINE
  8
0
 10
-54.6334
 20
-7.80315
 11
-68.3911
 21
-5.37727
  0
LINE
  8
0
 10
33.4962
 20
2.65526
 11
47.2539
 21
5.08113
  0
LINE
  8
0
 10
47.2539
 20
5.08113
 11
49.6798
 21
-8.67659
  0
LINE
  8
0
 10
49.6798
 20
-8.67659
 11
35.922
 21
-11.1025
  0
LINE
  8
0
 10
35.922
 20
-11.1025
 11
33.4962
 21
2.65526
  0
LINE
  8
0
 10
-49.6798
 20
-8.67659
 11
-47.2539
 21
5.08113
  0
LINE
  8
0
 10
-47.2539
 20
5.08113
 11
-33.4962
 21
2.65526
  0
LINE
  8
0
 10
-33.4962
 20
2.65526
 11
-35.922
 21
-11.1025
  0
LINE
  8
0
 10
-35.922
 20
-11.1025
 11
-49.6798
 21
-8.67659
  0
LINE
  8
0
 10
14.7848
 20
-0.644028
 11
28.5426
 21
1.78181
  0
LINE
  8
0
 10
28.5426
 20
1.78181
 11
30.9684
 21
-11.9759
  0
LINE
  8
0
 10
30.9684
 20
-11.9759
 11
17.2107
 21
-14.4018
  0
LINE
  8
0
 10
17.2107
 20
-14.4018
 11
14.7848
 21
-0.644028
  0
LINE
  8
0
 10
-30.9684
 20
-11.9759
 11
-28.5426
 21
1.78181
  0
LINE
  8
0
 10
-28.5426
 20
1.78181
 11
-14.7848
 21
-0.644028
  0
LINE
  8
0
 10
-14.7848
 20
-0.644028
 11
-17.2107
 21
-14.4018
  0
LINE
  8
0
 10
-17.2107
 20
-14.4018
 11
-30.9684
 21
-11.9759
  0
LINE
  8
0
 10
73.6136
 20
-5.90501
 11
73.429
 21
-5.86714
  0
LINE
  8
0
 10
73.429
 20
-5.86714
 11
73.2507
 21
-5.80643
  0
LINE
  8
0
 10
73.2507
 20
-5.80643
 11
73.0814
 21
-5.72386
  0
LINE
  8
0
 10
73.0814
 20
-5.72386
 11
72.9238
 21
-5.62071
  0
LINE
  8
0
 10
72.9238
 20
-5.62071
 11
72.7803
 21
-5.49863
  0
LINE
  8
0
 10
72.7803
 20
-5.49863
 11
72.6533
 21
-5.35953
  0
LINE
  8
0
 10
72.6533
 20
-5.35953
 11
72.5447
 21
-5.2056
  0
LINE
  8
0
 10
72.5447
 20
-5.2056
 11
72.4563
 21
-5.03928
  0
LINE
  8
0
 10
72.4563
 20
-5.03928
 11
72.3894
 21
-4.86317
  0
LINE
  8
0
 10
72.3894
 20
-4.86317
 11
72.3451
 21
-4.68008
  0
LINE
  8
0
 10
72.3451
 20
-4.68008
 11
72.3241
 21
-4.49289
  0
LINE
  8
0
 10
72.3241
 20
-4.49289
 11
72.3268
 21
-4.30453
  0
LINE
  8
0
 10
72.3268
 20
-4.30453
 11
72.353
 21
-4.118
  0
LINE
  8
0
 10
72.353
 20
-4.118
 11
72.4024
 21
-3.93622
  0
LINE
  8
0
 10
72.4024
 20
-3.93622
 11
72.4741
 21
-3.76205
  0
LINE
  8
0
 10
72.4741
 20
-3.76205
 11
72.5672
 21
-3.59827
  0
LINE
  8
0
 10
72.5672
 20
-3.59827
 11
72.68
 21
-3.44743
  0
LINE
  8
0
 10
72.68
 20
-3.44743
 11
72.8109
 21
-3.31194
  0
LINE
  8
0
 10
72.8109
 20
-3.31194
 11
72.9577
 21
-3.19389
  0
LINE
  8
0
 10
72.9577
 20
-3.19389
 11
73.1181
 21
-3.0952
  0
LINE
  8
0
 10
73.1181
 20
-3.0952
 11
73.2897
 21
-3.01738
  0
LINE
  8
0
 10
73.2897
 20
-3.01738
 11
73.4696
 21
-2.96167
  0
LINE
  8
0
 10
73.4696
 20
-2.96167
 11
73.6551
 21
-2.92896
  0
LINE
  8
0
 10
73.6551
 20
-2.92896
 11
73.8433
 21
-2.91977
  0
LINE
  8
0
 10
73.8433
 20
-2.91977
 11
74.0311
 21
-2.93422
  0
LINE
  8
0
 10
74.0311
 20
-2.93422
 11
74.2156
 21
-2.97209
  0
LINE
  8
0
 10
74.2156
 20
-2.97209
 11
74.3939
 21
-3.03281
  0
LINE
  8
0
 10
74.3939
 20
-3.03281
 11
74.5632
 21
-3.11537
  0
LINE
  8
0
 10
74.5632
 20
-3.11537
 11
74.7209
 21
-3.21852
  0
LINE
  8
0
 10
74.7209
 20
-3.21852
 11
74.8643
 21
-3.34061
  0
LINE
  8
0
 10
74.8643
 20
-3.34061
 11
74.9913
 21
-3.47971
  0
LINE
  8
0
 10
74.9913
 20
-3.47971
 11
75.0999
 21
-3.63364
  0
LINE
  8
0
 10
75.0999
 20
-3.63364
 11
75.1884
 21
-3.79996
  0
LINE
  8
0
 10
75.1884
 20
-3.79996
 11
75.2552
 21
-3.97606
  0
LINE
  8
0
 10
75.2552
 20
-3.97606
 11
75.2995
 21
-4.15913
  0
LINE
  8
0
 10
75.2995
 20
-4.15913
 11
75.3205
 21
-4.34634
  0
LINE
  8
0
 10
75.3205
 20
-4.34634
 11
75.3179
 21
-4.5347
  0
LINE
  8
0
 10
75.3179
 20
-4.5347
 11
75.2917
 21
-4.72124
  0
LINE
  8
0
 10
75.2917
 20
-4.72124
 11
75.2423
 21
-4.90302
  0
LINE
  8
0
 10
75.2423
 20
-4.90302
 11
75.1705
 21
-5.07716
  0
LINE
  8
0
 10
75.1705
 20
-5.07716
 11
75.0775
 21
-5.24095
  0
LINE
  8
0
 10
75.0775
 20
-5.24095
 11
74.9646
 21
-5.3918
  0
LINE
  8
0
 10
74.9646
 20
-5.3918
 11
74.8338
 21
-5.5273
  0
LINE
  8
0
 10
74.8338
 20
-5.5273
 11
74.687
 21
-5.64534
  0
LINE
  8
0
 10
74.687
 20
-5.64534
 11
74.5265
 21
-5.74403
  0
LINE
  8
0
 10
74.5265
 20
-5.74403
 11
74.355
 21
-5.82185
  0
LINE
  8
0
 10
74.355
 20
-5.82185
 11
74.175
 21
-5.87755
  0
LINE
  8
0
 10
74.175
 20
-5.87755
 11
73.9895
 21
-5.91026
  0
LINE
  8
0
 10
73.9895
 20
-5.91026
 11
73.8014
 21
-5.91946
  0
LINE
  8
0
 10
73.8014
 20
-5.91946
 11
73.6136
 21
-5.90501
  0
LINE
  8
0
 10
-73.9895
 20
-5.91026
 11
-74.175
 21
-5.87755
  0
LINE
  8
0
 10
-74.175
 20
-5.87755
 11
-74.355
 21
-5.82185
  0
LINE
  8
0
 10
-74.355
 20
-5.82185
 11
-74.5265
 21
-5.74403
  0
LINE
  8
0
 10
-74.5265
 20
-5.74403
 11
-74.687
 21
-5.64534
  0
LINE
  8
0
 10
-74.687
 20
-5.64534
 11
-74.8338
 21
-5.5273
  0
LINE
  8
0
 10
-74.8338
 20
-5.5273
 11
-74.9646
 21
-5.3918
  0
LINE
  8
0
 10
-74.9646
 20
-5.3918
 11
-75.0775
 21
-5.24095
  0
LINE
  8
0
 10
-75.0775
 20
-5.24095
 11
-75.1705
 21
-5.07716
  0
LINE
  8
0
 10
-75.1705
 20
-5.07716
 11
-75.2423
 21
-4.90302
  0
LINE
  8
0
 10
-75.2423
 20
-4.90302
 11
-75.2917
 21
-4.72124
  0
LINE
  8
0
 10
-75.2917
 20
-4.72124
 11
-75.3179
 21
-4.5347
  0
LINE
  8
0
 10
-75.3179
 20
-4.5347
 11
-75.3205
 21
-4.34634
  0
LINE
  8
0
 10
-75.3205
 20
-4.34634
 11
-75.2995
 21
-4.15913
  0
LINE
  8
0
 10
-75.2995
 20
-4.15913
 11
-75.2552
 21
-3.97606
  0
LINE
  8
0
 10
-75.2552
 20
-3.97606
 11
-75.1884
 21
-3.79996
  0
LINE
  8
0
 10
-75.1884
 20
-3.79996
 11
-75.0999
 21
-3.63364
  0
LINE
  8
0
 10
-75.0999
 20
-3.63364
 11
-74.9913
 21
-3.47971
  0
LINE
  8
0
 10
-74.9913
 20
-3.47971
 11
-74.8643
 21
-3.34061
  0
LINE
  8
0
 10
-74.8643
 20
-3.34061
 11
-74.7209
 21
-3.21852
  0
LINE
  8
0
 10
-74.7209
 20
-3.21852
 11
-74.5632
 21
-3.11537
  0
LINE
  8
0
 10
-74.5632
 20
-3.11537
 11
-74.3939
 21
-3.03281
  0
LINE
  8
0
 10
-74.3939
 20
-3.03281
 11
-74.2156
 21
-2.97209
  0
LINE
  8
0
 10
-74.2156
 20
-2.97209
 11
-74.0311
 21
-2.93422
  0
LINE
  8
0
 10
-74.0311
 20
-2.93422
 11
-73.8433
 21
-2.91977
  0
LINE
  8
0
 10
-73.8433
 20
-2.91977
 11
-73.6551
 21
-2.92896
  0
LINE
  8
0
 10
-73.6551
 20
-2.92896
 11
-73.4696
 21
-2.96167
  0
LINE
  8
0
 10
-73.4696
 20
-2.96167
 11
-73.2897
 21
-3.01738
  0
LINE
  8
0
 10
-73.2897
 20
-3.01738
 11
-73.1181
 21
-3.0952
  0
LINE
  8
0
 10
-73.1181
 20
-3.0952
 11
-72.9577
 21
-3.19389
  0
LINE
  8
0
 10
-72.9577
 20
-3.19389
 11
-72.8109
 21
-3.31194
  0
LINE
  8
0
 10
-72.8109
 20
-3.31194
 11
-72.68
 21
-3.44743
  0
LINE
  8
0
 10
-72.68
 20
-3.44743
 11
-72.5672
 21
-3.59827
  0
LINE
  8
0
 10
-72.5672
 20
-3.59827
 11
-72.4741
 21
-3.76205
  0
LINE
  8
0
 10
-72.4741
 20
-3.76205
 11
-72.4024
 21
-3.93622
  0
LINE
  8
0
 10
-72.4024
 20
-3.93622
 11
-72.353
 21
-4.118
  0
LINE
  8
0
 10
-72.353
 20
-4.118
 11
-72.3268
 21
-4.30453
  0
LINE
  8
0
 10
-72.3268
 20
-4.30453
 11
-72.3241
 21
-4.49289
  0
LINE
  8
0
 10
-72.3241
 20
-4.49289
 11
-72.3451
 21
-4.68008
  0
LINE
  8
0
 10
-72.3451
 20
-4.68008
 11
-72.3894
 21
-4.86317
  0
LINE
  8
0
 10
-72.3894
 20
-4.86317
 11
-72.4563
 21
-5.03928
  0
LINE
  8
0
 10
-72.4563
 20
-5.03928
 11
-72.5447
 21
-5.2056
  0
LINE
  8
0
 10
-72.5447
 20
-5.2056
 11
-72.6533
 21
-5.35953
  0
LINE
  8
0
 10
-72.6533
 20
-5.35953
 11
-72.7803
 21
-5.49863
  0
LINE
  8
0
 10
-72.7803
 20
-5.49863
 11
-72.9238
 21
-5.62071
  0
LINE
  8
0
 10
-72.9238
 20
-5.62071
 11
-73.0814
 21
-5.72386
  0
LINE
  8
0
 10
-73.0814
 20
-5.72386
 11
-73.2507
 21
-5.80643
  0
LINE
  8
0
 10
-73.2507
 20
-5.80643
 11
-73.429
 21
-5.86714
  0
LINE
  8
0
 10
-73.429
 20
-5.86714
 11
-73.6136
 21
-5.90501
  0
LINE
  8
0
 10
-73.6136
 20
-5.90501
 11
-73.8014
 21
-5.91946
  0
LINE
  8
0
 10
-73.8014
 20
-5.91946
 11
-73.9895
 21
-5.91026
  0
LINE
  8
0
 10
11.5707
 20
-16.8448
 11
11.3862
 21
-16.807
  0
LINE
  8
0
 10
11.3862
 20
-16.807
 11
11.2079
 21
-16.7463
  0
LINE
  8
0
 10
11.2079
 20
-16.7463
 11
11.0385
 21
-16.6637
  0
LINE
  8
0
 10
11.0385
 20
-16.6637
 11
10.8809
 21
-16.5605
  0
LINE
  8
0
 10
10.8809
 20
-16.5605
 11
10.7375
 21
-16.4385
  0
LINE
  8
0
 10
10.7375
 20
-16.4385
 11
10.6104
 21
-16.2994
  0
LINE
  8
0
 10
10.6104
 20
-16.2994
 11
10.5019
 21
-16.1454
  0
LINE
  8
0
 10
10.5019
 20
-16.1454
 11
10.4134
 21
-15.9791
  0
LINE
  8
0
 10
10.4134
 20
-15.9791
 11
10.3465
 21
-15.803
  0
LINE
  8
0
 10
10.3465
 20
-15.803
 11
10.3022
 21
-15.6199
  0
LINE
  8
0
 10
10.3022
 20
-15.6199
 11
10.2812
 21
-15.4327
  0
LINE
  8
0
 10
10.2812
 20
-15.4327
 11
10.2839
 21
-15.2444
  0
LINE
  8
0
 10
10.2839
 20
-15.2444
 11
10.3101
 21
-15.0578
  0
LINE
  8
0
 10
10.3101
 20
-15.0578
 11
10.3595
 21
-14.8761
  0
LINE
  8
0
 10
10.3595
 20
-14.8761
 11
10.4313
 21
-14.7019
  0
LINE
  8
0
 10
10.4313
 20
-14.7019
 11
10.5243
 21
-14.5381
  0
LINE
  8
0
 10
10.5243
 20
-14.5381
 11
10.6371
 21
-14.3873
  0
LINE
  8
0
 10
10.6371
 20
-14.3873
 11
10.768
 21
-14.2518
  0
LINE
  8
0
 10
10.768
 20
-14.2518
 11
10.9148
 21
-14.1337
  0
LINE
  8
0
 10
10.9148
 20
-14.1337
 11
11.0753
 21
-14.035
  0
LINE
  8
0
 10
11.0753
 20
-14.035
 11
11.2468
 21
-13.9572
  0
LINE
  8
0
 10
11.2468
 20
-13.9572
 11
11.4267
 21
-13.9015
  0
LINE
  8
0
 10
11.4267
 20
-13.9015
 11
11.6122
 21
-13.8688
  0
LINE
  8
0
 10
11.6122
 20
-13.8688
 11
11.8004
 21
-13.8596
  0
LINE
  8
0
 10
11.8004
 20
-13.8596
 11
11.9882
 21
-13.8741
  0
LINE
  8
0
 10
11.9882
 20
-13.8741
 11
12.1727
 21
-13.9119
  0
LINE
  8
0
 10
12.1727
 20
-13.9119
 11
12.3511
 21
-13.9726
  0
LINE
  8
0
 10
12.3511
 20
-13.9726
 11
12.5204
 21
-14.0552
  0
LINE
  8
0
 10
12.5204
 20
-14.0552
 11
12.678
 21
-14.1584
  0
LINE
  8
0
 10
12.678
 20
-14.1584
 11
12.8214
 21
-14.2804
  0
LINE
  8
0
 10
12.8214
 20
-14.2804
 11
12.9485
 21
-14.4195
  0
LINE
  8
0
 10
12.9485
 20
-14.4195
 11
13.057
 21
-14.5735
  0
LINE
  8
0
 10
13.057
 20
-14.5735
 11
13.1455
 21
-14.7398
  0
LINE
  8
0
 10
13.1455
 20
-14.7398
 11
13.2124
 21
-14.9159
  0
LINE
  8
0
 10
13.2124
 20
-14.9159
 11
13.2567
 21
-15.099
  0
LINE
  8
0
 10
13.2567
 20
-15.099
 11
13.2777
 21
-15.2862
  0
LINE
  8
0
 10
13.2777
 20
-15.2862
 11
13.275
 21
-15.4745
  0
LINE
  8
0
 10
13.275
 20
-15.4745
 11
13.2488
 21
-15.6611
  0
LINE
  8
0
 10
13.2488
 20
-15.6611
 11
13.1994
 21
-15.8428
  0
LINE
  8
0
 10
13.1994
 20
-15.8428
 11
13.1276
 21
-16.017
  0
LINE
  8
0
 10
13.1276
 20
-16.017
 11
13.0346
 21
-16.1808
  0
LINE
  8
0
 10
13.0346
 20
-16.1808
 11
12.9218
 21
-16.3316
  0
LINE
  8
0
 10
12.9218
 20
-16.3316
 11
12.7909
 21
-16.4671
  0
LINE
  8
0
 10
12.7909
 20
-16.4671
 11
12.6441
 21
-16.5852
  0
LINE
  8
0
 10
12.6441
 20
-16.5852
 11
12.4837
 21
-16.6839
  0
LINE
  8
0
 10
12.4837
 20
-16.6839
 11
12.3121
 21
-16.7617
  0
LINE
  8
0
 10
12.3121
 20
-16.7617
 11
12.1322
 21
-16.8174
  0
LINE
  8
0
 10
12.1322
 20
-16.8174
 11
11.9467
 21
-16.8501
  0
LINE
  8
0
 10
11.9467
 20
-16.8501
 11
11.7585
 21
-16.8593
  0
LINE
  8
0
 10
11.7585
 20
-16.8593
 11
11.5707
 21
-16.8448
  0
LINE
  8
0
 10
-11.9467
 20
-16.8501
 11
-12.1322
 21
-16.8174
  0
LINE
  8
0
 10
-12.1322
 20
-16.8174
 11
-12.3121
 21
-16.7617
  0
LINE
  8
0
 10
-12.3121
 20
-16.7617
 11
-12.4837
 21
-16.6839
  0
LINE
  8
0
 10
-12.4837
 20
-16.6839
 11
-12.6441
 21
-16.5852
  0
LINE
  8
0
 10
-12.6441
 20
-16.5852
 11
-12.7909
 21
-16.4671
  0
LINE
  8
0
 10
-12.7909
 20
-16.4671
 11
-12.9218
 21
-16.3316
  0
LINE
  8
0
 10
-12.9218
 20
-16.3316
 11
-13.0346
 21
-16.1808
  0
LINE
  8
0
 10
-13.0346
 20
-16.1808
 11
-13.1276
 21
-16.017
  0
LINE
  8
0
 10
-13.1276
 20
-16.017
 11
-13.1994
 21
-15.8428
  0
LINE
  8
0
 10
-13.1994
 20
-15.8428
 11
-13.2488
 21
-15.6611
  0
LINE
  8
0
 10
-13.2488
 20
-15.6611
 11
-13.275
 21
-15.4745
  0
LINE
  8
0
 10
-13.275
 20
-15.4745
 11
-13.2777
 21
-15.2862
  0
LINE
  8
0
 10
-13.2777
 20
-15.2862
 11
-13.2567
 21
-15.099
  0
LINE
  8
0
 10
-13.2567
 20
-15.099
 11
-13.2124
 21
-14.9159
  0
LINE
  8
0
 10
-13.2124
 20
-14.9159
 11
-13.1455
 21
-14.7398
  0
LINE
  8
0
 10
-13.1455
 20
-14.7398
 11
-13.057
 21
-14.5735
  0
LINE
  8
0
 10
-13.057
 20
-14.5735
 11
-12.9485
 21
-14.4195
  0
LINE
  8
0
 10
-12.9485
 20
-14.4195
 11
-12.8214
 21
-14.2804
  0
LINE
  8
0
 10
-12.8214
 20
-14.2804
 11
-12.678
 21
-14.1584
  0
LINE
  8
0
 10
-12.678
 20
-14.1584
 11
-12.5204
 21
-14.0552
  0
LINE
  8
0
 10
-12.5204
 20
-14.0552
 11
-12.3511
 21
-13.9726
  0
LINE
  8
0
 10
-12.3511
 20
-13.9726
 11
-12.1727
 21
-13.9119
  0
LINE
  8
0
 10
-12.1727
 20
-13.9119
 11
-11.9882
 21
-13.8741
  0
LINE
  8
0
 10
-11.9882
 20
-13.8741
 11
-11.8004
 21
-13.8596
  0
LINE
  8
0
 10
-11.8004
 20
-13.8596
 11
-11.6122
 21
-13.8688
  0
LINE
  8
0
 10
-11.6122
 20
-13.8688
 11
-11.4267
 21
-13.9015
  0
LINE
  8
0
 10
-11.4267
 20
-13.9015
 11
-11.2468
 21
-13.9572
  0
LINE
  8
0
 10
-11.2468
 20
-13.9572
 11
-11.0753
 21
-14.035
  0
LINE
  8
0
 10
-11.0753
 20
-14.035
 11
-10.9148
 21
-14.1337
  0
LINE
  8
0
 10
-10.9148
 20
-14.1337
 11
-10.768
 21
-14.2518
  0
LINE
  8
0
 10
-10.768
 20
-14.2518
 11
-10.6371
 21
-14.3873
  0
LINE
  8
0
 10
-10.6371
 20
-14.3873
 11
-10.5243
 21
-14.5381
  0
LINE
  8
0
 10
-10.5243
 20
-14.5381
 11
-10.4313
 21
-14.7019
  0
LINE
  8
0
 10
-10.4313
 20
-14.7019
 11
-10.3595
 21
-14.8761
  0
LINE
  8
0
 10
-10.3595
 20
-14.8761
 11
-10.3101
 21
-15.0578
  0
LINE
  8
0
 10
-10.3101
 20
-15.0578
 11
-10.2839
 21
-15.2444
  0
LINE
  8
0
 10
-10.2839
 20
-15.2444
 11
-10.2812
 21
-15.4327
  0
LINE
  8
0
 10
-10.2812
 20
-15.4327
 11
-10.3022
 21
-15.6199
  0
LINE
  8
0
 10
-10.3022
 20
-15.6199
 11
-10.3465
 21
-15.803
  0
LINE
  8
0
 10
-10.3465
 20
-15.803
 11
-10.4134
 21
-15.9791
  0
LINE
  8
0
 10
-10.4134
 20
-15.9791
 11
-10.5019
 21
-16.1454
  0
LINE
  8
0
 10
-10.5019
 20
-16.1454
 11
-10.6104
 21
-16.2994
  0
LINE
  8
0
 10
-10.6104
 20
-16.2994
 11
-10.7375
 21
-16.4385
  0
LINE
  8
0
 10
-10.7375
 20
-16.4385
 11
-10.8809
 21
-16.5605
  0
LINE
  8
0
 10
-10.8809
 20
-16.5605
 11
-11.0385
 21
-16.6637
  0
LINE
  8
0
 10
-11.0385
 20
-16.6637
 11
-11.2079
 21
-16.7463
  0
LINE
  8
0
 10
-11.2079
 20
-16.7463
 11
-11.3862
 21
-16.807
  0
LINE
  8
0
 10
-11.3862
 20
-16.807
 11
-11.5707
 21
-16.8448
  0
LINE
  8
0
 10
-11.5707
 20
-16.8448
 11
-11.7585
 21
-16.8593
  0
LINE
  8
0
 10
-11.7585
 20
-16.8593
 11
-11.9467
 21
-16.8501
  0
ENDSEC
  0
SECTION
  2
OBJECTS
  0
DICTIONARY
  0
ENDSEC
  0
EOF
