solid OpenSCAD_Model
  facet normal -1 0 0
    outer loop
      vertex 0 0 0
      vertex 0 81 8
      vertex 0 81 0
    endloop
  endfacet
  facet normal -1 -0 0
    outer loop
      vertex 0 81 8
      vertex 0 0 0
      vertex 0 0 8
    endloop
  endfacet
  facet normal 0 0 1
    outer loop
      vertex 233 81 8
      vertex 229 77 8
      vertex 233 0 8
    endloop
  endfacet
  facet normal 0 0 1
    outer loop
      vertex 233 81 8
      vertex 4 77 8
      vertex 229 77 8
    endloop
  endfacet
  facet normal 0 0 1
    outer loop
      vertex 4 77 8
      vertex 0 81 8
      vertex 4 4 8
    endloop
  endfacet
  facet normal -0 0 1
    outer loop
      vertex 0 81 8
      vertex 4 77 8
      vertex 233 81 8
    endloop
  endfacet
  facet normal -0 0 1
    outer loop
      vertex 229 4 8
      vertex 233 0 8
      vertex 229 77 8
    endloop
  endfacet
  facet normal -0 0 1
    outer loop
      vertex 4 4 8
      vertex 233 0 8
      vertex 229 4 8
    endloop
  endfacet
  facet normal 0 0 1
    outer loop
      vertex 4 4 8
      vertex 0 0 8
      vertex 233 0 8
    endloop
  endfacet
  facet normal 0 0 1
    outer loop
      vertex 0 0 8
      vertex 4 4 8
      vertex 0 81 8
    endloop
  endfacet
  facet normal 1 -0 0
    outer loop
      vertex 233 0 8
      vertex 233 81 0
      vertex 233 81 8
    endloop
  endfacet
  facet normal 1 0 0
    outer loop
      vertex 233 81 0
      vertex 233 0 8
      vertex 233 0 0
    endloop
  endfacet
  facet normal 0 1 0
    outer loop
      vertex 233 81 8
      vertex 45 81 5
      vertex 0 81 8
    endloop
  endfacet
  facet normal 0 1 -0
    outer loop
      vertex 233 81 0
      vertex 45 81 5
      vertex 233 81 8
    endloop
  endfacet
  facet normal 0 1 0
    outer loop
      vertex 45 81 5
      vertex 233 81 0
      vertex 45 81 0
    endloop
  endfacet
  facet normal 0 1 -0
    outer loop
      vertex 35 81 5
      vertex 0 81 8
      vertex 45 81 5
    endloop
  endfacet
  facet normal 0 1 0
    outer loop
      vertex 0 81 0
      vertex 35 81 5
      vertex 35 81 0
    endloop
  endfacet
  facet normal 0 1 0
    outer loop
      vertex 35 81 5
      vertex 0 81 0
      vertex 0 81 8
    endloop
  endfacet
  facet normal 0 0 -1
    outer loop
      vertex 233 0 0
      vertex 229 4 0
      vertex 233 81 0
    endloop
  endfacet
  facet normal 0 0 -1
    outer loop
      vertex 233 0 0
      vertex 4 4 0
      vertex 229 4 0
    endloop
  endfacet
  facet normal -0 0 -1
    outer loop
      vertex 4 4 0
      vertex 0 0 0
      vertex 4 77 0
    endloop
  endfacet
  facet normal 0 0 -1
    outer loop
      vertex 0 0 0
      vertex 4 4 0
      vertex 233 0 0
    endloop
  endfacet
  facet normal 0 0 -1
    outer loop
      vertex 229 77 0
      vertex 233 81 0
      vertex 229 4 0
    endloop
  endfacet
  facet normal 0 0 -1
    outer loop
      vertex 45 81 0
      vertex 229 77 0
      vertex 45 77 0
    endloop
  endfacet
  facet normal 0 0 -1
    outer loop
      vertex 229 77 0
      vertex 45 81 0
      vertex 233 81 0
    endloop
  endfacet
  facet normal 0 0 -1
    outer loop
      vertex 4 77 0
      vertex 35 81 0
      vertex 35 77 0
    endloop
  endfacet
  facet normal 0 0 -1
    outer loop
      vertex 4 77 0
      vertex 0 81 0
      vertex 35 81 0
    endloop
  endfacet
  facet normal 0 0 -1
    outer loop
      vertex 0 81 0
      vertex 4 77 0
      vertex 0 0 0
    endloop
  endfacet
  facet normal 0 -1 0
    outer loop
      vertex 0 0 0
      vertex 233 0 8
      vertex 0 0 8
    endloop
  endfacet
  facet normal 0 -1 -0
    outer loop
      vertex 233 0 8
      vertex 0 0 0
      vertex 233 0 0
    endloop
  endfacet
  facet normal 1 -0 0
    outer loop
      vertex 4 4 8
      vertex 4 77 0
      vertex 4 77 8
    endloop
  endfacet
  facet normal 1 0 0
    outer loop
      vertex 4 77 0
      vertex 4 4 8
      vertex 4 4 0
    endloop
  endfacet
  facet normal -1 0 0
    outer loop
      vertex 229 4 0
      vertex 229 77 8
      vertex 229 77 0
    endloop
  endfacet
  facet normal -1 -0 0
    outer loop
      vertex 229 77 8
      vertex 229 4 0
      vertex 229 4 8
    endloop
  endfacet
  facet normal 0 1 -0
    outer loop
      vertex 229 4 0
      vertex 4 4 8
      vertex 229 4 8
    endloop
  endfacet
  facet normal 0 1 0
    outer loop
      vertex 4 4 8
      vertex 229 4 0
      vertex 4 4 0
    endloop
  endfacet
  facet normal 0 -1 0
    outer loop
      vertex 45 77 5
      vertex 4 77 8
      vertex 35 77 5
    endloop
  endfacet
  facet normal 0 -1 0
    outer loop
      vertex 4 77 0
      vertex 35 77 5
      vertex 4 77 8
    endloop
  endfacet
  facet normal 0 -1 -0
    outer loop
      vertex 35 77 5
      vertex 4 77 0
      vertex 35 77 0
    endloop
  endfacet
  facet normal 0 -1 0
    outer loop
      vertex 4 77 8
      vertex 45 77 5
      vertex 229 77 8
    endloop
  endfacet
  facet normal 0 -1 0
    outer loop
      vertex 229 77 0
      vertex 45 77 5
      vertex 45 77 0
    endloop
  endfacet
  facet normal 0 -1 0
    outer loop
      vertex 45 77 5
      vertex 229 77 0
      vertex 229 77 8
    endloop
  endfacet
  facet normal 1 -0 0
    outer loop
      vertex 35 77 5
      vertex 35 81 0
      vertex 35 81 5
    endloop
  endfacet
  facet normal 1 0 0
    outer loop
      vertex 35 81 0
      vertex 35 77 5
      vertex 35 77 0
    endloop
  endfacet
  facet normal 0 0 -1
    outer loop
      vertex 35 77 5
      vertex 45 81 5
      vertex 45 77 5
    endloop
  endfacet
  facet normal -0 0 -1
    outer loop
      vertex 45 81 5
      vertex 35 77 5
      vertex 35 81 5
    endloop
  endfacet
  facet normal -1 0 0
    outer loop
      vertex 45 77 0
      vertex 45 81 5
      vertex 45 81 0
    endloop
  endfacet
  facet normal -1 -0 0
    outer loop
      vertex 45 81 5
      vertex 45 77 0
      vertex 45 77 5
    endloop
  endfacet
endsolid OpenSCAD_Model
