  0
SECTION
  2
BLOCKS
  0
ENDSEC
  0
SECTION
  2
ENTITIES
  0
LINE
  8
0
 10
25.7122
 20
106.281
 11
26.4433
 21
106.464
  0
LINE
  8
0
 10
26.4433
 20
106.464
 11
27.1458
 21
106.736
  0
LINE
  8
0
 10
27.1458
 20
106.736
 11
125.81
 21
159.212
  0
LINE
  8
0
 10
125.81
 20
159.212
 11
126.452
 21
159.606
  0
LINE
  8
0
 10
126.452
 20
159.606
 11
127.039
 21
160.079
  0
LINE
  8
0
 10
127.039
 20
160.079
 11
127.562
 21
160.621
  0
LINE
  8
0
 10
127.562
 20
160.621
 11
128.014
 21
161.224
  0
LINE
  8
0
 10
128.014
 20
161.224
 11
128.386
 21
161.879
  0
LINE
  8
0
 10
128.386
 20
161.879
 11
128.673
 21
162.576
  0
LINE
  8
0
 10
128.673
 20
162.576
 11
128.87
 21
163.303
  0
LINE
  8
0
 10
128.87
 20
163.303
 11
128.975
 21
164.049
  0
LINE
  8
0
 10
128.975
 20
164.049
 11
128.986
 21
164.802
  0
LINE
  8
0
 10
128.986
 20
164.802
 11
128.902
 21
165.551
  0
LINE
  8
0
 10
128.902
 20
165.551
 11
119.004
 21
221.685
  0
LINE
  8
0
 10
119.004
 20
221.685
 11
118.827
 21
222.418
  0
LINE
  8
0
 10
118.827
 20
222.418
 11
118.559
 21
223.122
  0
LINE
  8
0
 10
118.559
 20
223.122
 11
118.205
 21
223.787
  0
LINE
  8
0
 10
118.205
 20
223.787
 11
117.771
 21
224.403
  0
LINE
  8
0
 10
117.771
 20
224.403
 11
117.263
 21
224.959
  0
LINE
  8
0
 10
117.263
 20
224.959
 11
116.689
 21
225.448
  0
LINE
  8
0
 10
116.689
 20
225.448
 11
116.059
 21
225.86
  0
LINE
  8
0
 10
116.059
 20
225.86
 11
115.382
 21
226.191
  0
LINE
  8
0
 10
115.382
 20
226.191
 11
114.668
 21
226.433
  0
LINE
  8
0
 10
114.668
 20
226.433
 11
113.93
 21
226.585
  0
LINE
  8
0
 10
113.93
 20
226.585
 11
113.179
 21
226.643
  0
LINE
  8
0
 10
113.179
 20
226.643
 11
-113.179
 21
226.643
  0
LINE
  8
0
 10
-113.179
 20
226.643
 11
-113.93
 21
226.585
  0
LINE
  8
0
 10
-113.93
 20
226.585
 11
-114.668
 21
226.433
  0
LINE
  8
0
 10
-114.668
 20
226.433
 11
-115.382
 21
226.191
  0
LINE
  8
0
 10
-115.382
 20
226.191
 11
-116.059
 21
225.86
  0
LINE
  8
0
 10
-116.059
 20
225.86
 11
-116.689
 21
225.448
  0
LINE
  8
0
 10
-116.689
 20
225.448
 11
-117.263
 21
224.959
  0
LINE
  8
0
 10
-117.263
 20
224.959
 11
-117.771
 21
224.403
  0
LINE
  8
0
 10
-117.771
 20
224.403
 11
-118.205
 21
223.787
  0
LINE
  8
0
 10
-118.205
 20
223.787
 11
-118.559
 21
223.122
  0
LINE
  8
0
 10
-118.559
 20
223.122
 11
-118.827
 21
222.418
  0
LINE
  8
0
 10
-118.827
 20
222.418
 11
-119.004
 21
221.685
  0
LINE
  8
0
 10
-119.004
 20
221.685
 11
-128.902
 21
165.551
  0
LINE
  8
0
 10
-128.902
 20
165.551
 11
-128.986
 21
164.802
  0
LINE
  8
0
 10
-128.986
 20
164.802
 11
-128.975
 21
164.049
  0
LINE
  8
0
 10
-128.975
 20
164.049
 11
-128.87
 21
163.303
  0
LINE
  8
0
 10
-128.87
 20
163.303
 11
-128.673
 21
162.576
  0
LINE
  8
0
 10
-128.673
 20
162.576
 11
-128.386
 21
161.879
  0
LINE
  8
0
 10
-128.386
 20
161.879
 11
-128.014
 21
161.224
  0
LINE
  8
0
 10
-128.014
 20
161.224
 11
-127.562
 21
160.621
  0
LINE
  8
0
 10
-127.562
 20
160.621
 11
-127.039
 21
160.079
  0
LINE
  8
0
 10
-127.039
 20
160.079
 11
-126.452
 21
159.606
  0
LINE
  8
0
 10
-126.452
 20
159.606
 11
-125.81
 21
159.212
  0
LINE
  8
0
 10
-125.81
 20
159.212
 11
-27.1458
 21
106.736
  0
LINE
  8
0
 10
-27.1458
 20
106.736
 11
-26.4433
 21
106.464
  0
LINE
  8
0
 10
-26.4433
 20
106.464
 11
-25.7122
 21
106.281
  0
LINE
  8
0
 10
-25.7122
 20
106.281
 11
-24.964
 21
106.192
  0
LINE
  8
0
 10
-24.964
 20
106.192
 11
24.964
 21
106.192
  0
LINE
  8
0
 10
24.964
 20
106.192
 11
25.7122
 21
106.281
  0
LINE
  8
0
 10
-23.9048
 20
219.153
 11
-24.0903
 21
219.185
  0
LINE
  8
0
 10
-24.0903
 20
219.185
 11
-24.2702
 21
219.241
  0
LINE
  8
0
 10
-24.2702
 20
219.241
 11
-24.4418
 21
219.319
  0
LINE
  8
0
 10
-24.4418
 20
219.319
 11
-24.6022
 21
219.418
  0
LINE
  8
0
 10
-24.6022
 20
219.418
 11
-24.749
 21
219.536
  0
LINE
  8
0
 10
-24.749
 20
219.536
 11
-24.8799
 21
219.671
  0
LINE
  8
0
 10
-24.8799
 20
219.671
 11
-24.9927
 21
219.822
  0
LINE
  8
0
 10
-24.9927
 20
219.822
 11
-25.0858
 21
219.986
  0
LINE
  8
0
 10
-25.0858
 20
219.986
 11
-25.1575
 21
220.16
  0
LINE
  8
0
 10
-25.1575
 20
220.16
 11
-25.2069
 21
220.342
  0
LINE
  8
0
 10
-25.2069
 20
220.342
 11
-25.2331
 21
220.528
  0
LINE
  8
0
 10
-25.2331
 20
220.528
 11
-25.2358
 21
220.717
  0
LINE
  8
0
 10
-25.2358
 20
220.717
 11
-25.2148
 21
220.904
  0
LINE
  8
0
 10
-25.2148
 20
220.904
 11
-25.1705
 21
221.087
  0
LINE
  8
0
 10
-25.1705
 20
221.087
 11
-25.1036
 21
221.263
  0
LINE
  8
0
 10
-25.1036
 20
221.263
 11
-25.0152
 21
221.429
  0
LINE
  8
0
 10
-25.0152
 20
221.429
 11
-24.9066
 21
221.583
  0
LINE
  8
0
 10
-24.9066
 20
221.583
 11
-24.7796
 21
221.722
  0
LINE
  8
0
 10
-24.7796
 20
221.722
 11
-24.6361
 21
221.844
  0
LINE
  8
0
 10
-24.6361
 20
221.844
 11
-24.4785
 21
221.948
  0
LINE
  8
0
 10
-24.4785
 20
221.948
 11
-24.3092
 21
222.03
  0
LINE
  8
0
 10
-24.3092
 20
222.03
 11
-24.1308
 21
222.091
  0
LINE
  8
0
 10
-24.1308
 20
222.091
 11
-23.9463
 21
222.129
  0
LINE
  8
0
 10
-23.9463
 20
222.129
 11
-23.7585
 21
222.143
  0
LINE
  8
0
 10
-23.7585
 20
222.143
 11
-23.5704
 21
222.134
  0
LINE
  8
0
 10
-23.5704
 20
222.134
 11
-23.3849
 21
222.101
  0
LINE
  8
0
 10
-23.3849
 20
222.101
 11
-23.2049
 21
222.046
  0
LINE
  8
0
 10
-23.2049
 20
222.046
 11
-23.0334
 21
221.968
  0
LINE
  8
0
 10
-23.0334
 20
221.968
 11
-22.8729
 21
221.869
  0
LINE
  8
0
 10
-22.8729
 20
221.869
 11
-22.7261
 21
221.751
  0
LINE
  8
0
 10
-22.7261
 20
221.751
 11
-22.5953
 21
221.616
  0
LINE
  8
0
 10
-22.5953
 20
221.616
 11
-22.4824
 21
221.465
  0
LINE
  8
0
 10
-22.4824
 20
221.465
 11
-22.3894
 21
221.301
  0
LINE
  8
0
 10
-22.3894
 20
221.301
 11
-22.3176
 21
221.127
  0
LINE
  8
0
 10
-22.3176
 20
221.127
 11
-22.2682
 21
220.945
  0
LINE
  8
0
 10
-22.2682
 20
220.945
 11
-22.242
 21
220.758
  0
LINE
  8
0
 10
-22.242
 20
220.758
 11
-22.2393
 21
220.57
  0
LINE
  8
0
 10
-22.2393
 20
220.57
 11
-22.2604
 21
220.383
  0
LINE
  8
0
 10
-22.2604
 20
220.383
 11
-22.3046
 21
220.2
  0
LINE
  8
0
 10
-22.3046
 20
220.2
 11
-22.3715
 21
220.024
  0
LINE
  8
0
 10
-22.3715
 20
220.024
 11
-22.46
 21
219.857
  0
LINE
  8
0
 10
-22.46
 20
219.857
 11
-22.5686
 21
219.703
  0
LINE
  8
0
 10
-22.5686
 20
219.703
 11
-22.6956
 21
219.564
  0
LINE
  8
0
 10
-22.6956
 20
219.564
 11
-22.839
 21
219.442
  0
LINE
  8
0
 10
-22.839
 20
219.442
 11
-22.9967
 21
219.339
  0
LINE
  8
0
 10
-22.9967
 20
219.339
 11
-23.166
 21
219.257
  0
LINE
  8
0
 10
-23.166
 20
219.257
 11
-23.3443
 21
219.196
  0
LINE
  8
0
 10
-23.3443
 20
219.196
 11
-23.5288
 21
219.158
  0
LINE
  8
0
 10
-23.5288
 20
219.158
 11
-23.7166
 21
219.144
  0
LINE
  8
0
 10
-23.7166
 20
219.144
 11
-23.9048
 21
219.153
  0
LINE
  8
0
 10
23.5288
 20
219.158
 11
23.3443
 21
219.196
  0
LINE
  8
0
 10
23.3443
 20
219.196
 11
23.166
 21
219.257
  0
LINE
  8
0
 10
23.166
 20
219.257
 11
22.9967
 21
219.339
  0
LINE
  8
0
 10
22.9967
 20
219.339
 11
22.839
 21
219.442
  0
LINE
  8
0
 10
22.839
 20
219.442
 11
22.6956
 21
219.564
  0
LINE
  8
0
 10
22.6956
 20
219.564
 11
22.5686
 21
219.703
  0
LINE
  8
0
 10
22.5686
 20
219.703
 11
22.46
 21
219.857
  0
LINE
  8
0
 10
22.46
 20
219.857
 11
22.3715
 21
220.024
  0
LINE
  8
0
 10
22.3715
 20
220.024
 11
22.3046
 21
220.2
  0
LINE
  8
0
 10
22.3046
 20
220.2
 11
22.2604
 21
220.383
  0
LINE
  8
0
 10
22.2604
 20
220.383
 11
22.2393
 21
220.57
  0
LINE
  8
0
 10
22.2393
 20
220.57
 11
22.242
 21
220.758
  0
LINE
  8
0
 10
22.242
 20
220.758
 11
22.2682
 21
220.945
  0
LINE
  8
0
 10
22.2682
 20
220.945
 11
22.3176
 21
221.127
  0
LINE
  8
0
 10
22.3176
 20
221.127
 11
22.3894
 21
221.301
  0
LINE
  8
0
 10
22.3894
 20
221.301
 11
22.4824
 21
221.465
  0
LINE
  8
0
 10
22.4824
 20
221.465
 11
22.5953
 21
221.616
  0
LINE
  8
0
 10
22.5953
 20
221.616
 11
22.7261
 21
221.751
  0
LINE
  8
0
 10
22.7261
 20
221.751
 11
22.8729
 21
221.869
  0
LINE
  8
0
 10
22.8729
 20
221.869
 11
23.0334
 21
221.968
  0
LINE
  8
0
 10
23.0334
 20
221.968
 11
23.2049
 21
222.046
  0
LINE
  8
0
 10
23.2049
 20
222.046
 11
23.3849
 21
222.101
  0
LINE
  8
0
 10
23.3849
 20
222.101
 11
23.5704
 21
222.134
  0
LINE
  8
0
 10
23.5704
 20
222.134
 11
23.7585
 21
222.143
  0
LINE
  8
0
 10
23.7585
 20
222.143
 11
23.9463
 21
222.129
  0
LINE
  8
0
 10
23.9463
 20
222.129
 11
24.1308
 21
222.091
  0
LINE
  8
0
 10
24.1308
 20
222.091
 11
24.3092
 21
222.03
  0
LINE
  8
0
 10
24.3092
 20
222.03
 11
24.4785
 21
221.948
  0
LINE
  8
0
 10
24.4785
 20
221.948
 11
24.6361
 21
221.844
  0
LINE
  8
0
 10
24.6361
 20
221.844
 11
24.7796
 21
221.722
  0
LINE
  8
0
 10
24.7796
 20
221.722
 11
24.9066
 21
221.583
  0
LINE
  8
0
 10
24.9066
 20
221.583
 11
25.0152
 21
221.429
  0
LINE
  8
0
 10
25.0152
 20
221.429
 11
25.1036
 21
221.263
  0
LINE
  8
0
 10
25.1036
 20
221.263
 11
25.1705
 21
221.087
  0
LINE
  8
0
 10
25.1705
 20
221.087
 11
25.2148
 21
220.904
  0
LINE
  8
0
 10
25.2148
 20
220.904
 11
25.2358
 21
220.717
  0
LINE
  8
0
 10
25.2358
 20
220.717
 11
25.2331
 21
220.528
  0
LINE
  8
0
 10
25.2331
 20
220.528
 11
25.2069
 21
220.342
  0
LINE
  8
0
 10
25.2069
 20
220.342
 11
25.1575
 21
220.16
  0
LINE
  8
0
 10
25.1575
 20
220.16
 11
25.0858
 21
219.986
  0
LINE
  8
0
 10
25.0858
 20
219.986
 11
24.9927
 21
219.822
  0
LINE
  8
0
 10
24.9927
 20
219.822
 11
24.8799
 21
219.671
  0
LINE
  8
0
 10
24.8799
 20
219.671
 11
24.749
 21
219.536
  0
LINE
  8
0
 10
24.749
 20
219.536
 11
24.6022
 21
219.418
  0
LINE
  8
0
 10
24.6022
 20
219.418
 11
24.4418
 21
219.319
  0
LINE
  8
0
 10
24.4418
 20
219.319
 11
24.2702
 21
219.241
  0
LINE
  8
0
 10
24.2702
 20
219.241
 11
24.0903
 21
219.185
  0
LINE
  8
0
 10
24.0903
 20
219.185
 11
23.9048
 21
219.153
  0
LINE
  8
0
 10
23.9048
 20
219.153
 11
23.7166
 21
219.144
  0
LINE
  8
0
 10
23.7166
 20
219.144
 11
23.5288
 21
219.158
  0
LINE
  8
0
 10
-113.262
 20
219.153
 11
-113.448
 21
219.185
  0
LINE
  8
0
 10
-113.448
 20
219.185
 11
-113.628
 21
219.241
  0
LINE
  8
0
 10
-113.628
 20
219.241
 11
-113.799
 21
219.319
  0
LINE
  8
0
 10
-113.799
 20
219.319
 11
-113.96
 21
219.418
  0
LINE
  8
0
 10
-113.96
 20
219.418
 11
-114.107
 21
219.536
  0
LINE
  8
0
 10
-114.107
 20
219.536
 11
-114.237
 21
219.671
  0
LINE
  8
0
 10
-114.237
 20
219.671
 11
-114.35
 21
219.822
  0
LINE
  8
0
 10
-114.35
 20
219.822
 11
-114.443
 21
219.986
  0
LINE
  8
0
 10
-114.443
 20
219.986
 11
-114.515
 21
220.16
  0
LINE
  8
0
 10
-114.515
 20
220.16
 11
-114.564
 21
220.342
  0
LINE
  8
0
 10
-114.564
 20
220.342
 11
-114.591
 21
220.528
  0
LINE
  8
0
 10
-114.591
 20
220.528
 11
-114.593
 21
220.717
  0
LINE
  8
0
 10
-114.593
 20
220.717
 11
-114.572
 21
220.904
  0
LINE
  8
0
 10
-114.572
 20
220.904
 11
-114.528
 21
221.087
  0
LINE
  8
0
 10
-114.528
 20
221.087
 11
-114.461
 21
221.263
  0
LINE
  8
0
 10
-114.461
 20
221.263
 11
-114.373
 21
221.429
  0
LINE
  8
0
 10
-114.373
 20
221.429
 11
-114.264
 21
221.583
  0
LINE
  8
0
 10
-114.264
 20
221.583
 11
-114.137
 21
221.722
  0
LINE
  8
0
 10
-114.137
 20
221.722
 11
-113.994
 21
221.844
  0
LINE
  8
0
 10
-113.994
 20
221.844
 11
-113.836
 21
221.948
  0
LINE
  8
0
 10
-113.836
 20
221.948
 11
-113.667
 21
222.03
  0
LINE
  8
0
 10
-113.667
 20
222.03
 11
-113.488
 21
222.091
  0
LINE
  8
0
 10
-113.488
 20
222.091
 11
-113.304
 21
222.129
  0
LINE
  8
0
 10
-113.304
 20
222.129
 11
-113.116
 21
222.143
  0
LINE
  8
0
 10
-113.116
 20
222.143
 11
-112.928
 21
222.134
  0
LINE
  8
0
 10
-112.928
 20
222.134
 11
-112.742
 21
222.101
  0
LINE
  8
0
 10
-112.742
 20
222.101
 11
-112.562
 21
222.046
  0
LINE
  8
0
 10
-112.562
 20
222.046
 11
-112.391
 21
221.968
  0
LINE
  8
0
 10
-112.391
 20
221.968
 11
-112.23
 21
221.869
  0
LINE
  8
0
 10
-112.23
 20
221.869
 11
-112.084
 21
221.751
  0
LINE
  8
0
 10
-112.084
 20
221.751
 11
-111.953
 21
221.616
  0
LINE
  8
0
 10
-111.953
 20
221.616
 11
-111.84
 21
221.465
  0
LINE
  8
0
 10
-111.84
 20
221.465
 11
-111.747
 21
221.301
  0
LINE
  8
0
 10
-111.747
 20
221.301
 11
-111.675
 21
221.127
  0
LINE
  8
0
 10
-111.675
 20
221.127
 11
-111.626
 21
220.945
  0
LINE
  8
0
 10
-111.626
 20
220.945
 11
-111.6
 21
220.758
  0
LINE
  8
0
 10
-111.6
 20
220.758
 11
-111.597
 21
220.57
  0
LINE
  8
0
 10
-111.597
 20
220.57
 11
-111.618
 21
220.383
  0
LINE
  8
0
 10
-111.618
 20
220.383
 11
-111.662
 21
220.2
  0
LINE
  8
0
 10
-111.662
 20
220.2
 11
-111.729
 21
220.024
  0
LINE
  8
0
 10
-111.729
 20
220.024
 11
-111.818
 21
219.857
  0
LINE
  8
0
 10
-111.818
 20
219.857
 11
-111.926
 21
219.703
  0
LINE
  8
0
 10
-111.926
 20
219.703
 11
-112.053
 21
219.564
  0
LINE
  8
0
 10
-112.053
 20
219.564
 11
-112.197
 21
219.442
  0
LINE
  8
0
 10
-112.197
 20
219.442
 11
-112.354
 21
219.339
  0
LINE
  8
0
 10
-112.354
 20
219.339
 11
-112.523
 21
219.257
  0
LINE
  8
0
 10
-112.523
 20
219.257
 11
-112.702
 21
219.196
  0
LINE
  8
0
 10
-112.702
 20
219.196
 11
-112.886
 21
219.158
  0
LINE
  8
0
 10
-112.886
 20
219.158
 11
-113.074
 21
219.144
  0
LINE
  8
0
 10
-113.074
 20
219.144
 11
-113.262
 21
219.153
  0
LINE
  8
0
 10
112.886
 20
219.158
 11
112.702
 21
219.196
  0
LINE
  8
0
 10
112.702
 20
219.196
 11
112.523
 21
219.257
  0
LINE
  8
0
 10
112.523
 20
219.257
 11
112.354
 21
219.339
  0
LINE
  8
0
 10
112.354
 20
219.339
 11
112.197
 21
219.442
  0
LINE
  8
0
 10
112.197
 20
219.442
 11
112.053
 21
219.564
  0
LINE
  8
0
 10
112.053
 20
219.564
 11
111.926
 21
219.703
  0
LINE
  8
0
 10
111.926
 20
219.703
 11
111.818
 21
219.857
  0
LINE
  8
0
 10
111.818
 20
219.857
 11
111.729
 21
220.024
  0
LINE
  8
0
 10
111.729
 20
220.024
 11
111.662
 21
220.2
  0
LINE
  8
0
 10
111.662
 20
220.2
 11
111.618
 21
220.383
  0
LINE
  8
0
 10
111.618
 20
220.383
 11
111.597
 21
220.57
  0
LINE
  8
0
 10
111.597
 20
220.57
 11
111.6
 21
220.758
  0
LINE
  8
0
 10
111.6
 20
220.758
 11
111.626
 21
220.945
  0
LINE
  8
0
 10
111.626
 20
220.945
 11
111.675
 21
221.127
  0
LINE
  8
0
 10
111.675
 20
221.127
 11
111.747
 21
221.301
  0
LINE
  8
0
 10
111.747
 20
221.301
 11
111.84
 21
221.465
  0
LINE
  8
0
 10
111.84
 20
221.465
 11
111.953
 21
221.616
  0
LINE
  8
0
 10
111.953
 20
221.616
 11
112.084
 21
221.751
  0
LINE
  8
0
 10
112.084
 20
221.751
 11
112.23
 21
221.869
  0
LINE
  8
0
 10
112.23
 20
221.869
 11
112.391
 21
221.968
  0
LINE
  8
0
 10
112.391
 20
221.968
 11
112.562
 21
222.046
  0
LINE
  8
0
 10
112.562
 20
222.046
 11
112.742
 21
222.101
  0
LINE
  8
0
 10
112.742
 20
222.101
 11
112.928
 21
222.134
  0
LINE
  8
0
 10
112.928
 20
222.134
 11
113.116
 21
222.143
  0
LINE
  8
0
 10
113.116
 20
222.143
 11
113.304
 21
222.129
  0
LINE
  8
0
 10
113.304
 20
222.129
 11
113.488
 21
222.091
  0
LINE
  8
0
 10
113.488
 20
222.091
 11
113.667
 21
222.03
  0
LINE
  8
0
 10
113.667
 20
222.03
 11
113.836
 21
221.948
  0
LINE
  8
0
 10
113.836
 20
221.948
 11
113.994
 21
221.844
  0
LINE
  8
0
 10
113.994
 20
221.844
 11
114.137
 21
221.722
  0
LINE
  8
0
 10
114.137
 20
221.722
 11
114.264
 21
221.583
  0
LINE
  8
0
 10
114.264
 20
221.583
 11
114.373
 21
221.429
  0
LINE
  8
0
 10
114.373
 20
221.429
 11
114.461
 21
221.263
  0
LINE
  8
0
 10
114.461
 20
221.263
 11
114.528
 21
221.087
  0
LINE
  8
0
 10
114.528
 20
221.087
 11
114.572
 21
220.904
  0
LINE
  8
0
 10
114.572
 20
220.904
 11
114.593
 21
220.717
  0
LINE
  8
0
 10
114.593
 20
220.717
 11
114.591
 21
220.528
  0
LINE
  8
0
 10
114.591
 20
220.528
 11
114.564
 21
220.342
  0
LINE
  8
0
 10
114.564
 20
220.342
 11
114.515
 21
220.16
  0
LINE
  8
0
 10
114.515
 20
220.16
 11
114.443
 21
219.986
  0
LINE
  8
0
 10
114.443
 20
219.986
 11
114.35
 21
219.822
  0
LINE
  8
0
 10
114.35
 20
219.822
 11
114.237
 21
219.671
  0
LINE
  8
0
 10
114.237
 20
219.671
 11
114.107
 21
219.536
  0
LINE
  8
0
 10
114.107
 20
219.536
 11
113.96
 21
219.418
  0
LINE
  8
0
 10
113.96
 20
219.418
 11
113.799
 21
219.319
  0
LINE
  8
0
 10
113.799
 20
219.319
 11
113.628
 21
219.241
  0
LINE
  8
0
 10
113.628
 20
219.241
 11
113.448
 21
219.185
  0
LINE
  8
0
 10
113.448
 20
219.185
 11
113.262
 21
219.153
  0
LINE
  8
0
 10
113.262
 20
219.153
 11
113.074
 21
219.144
  0
LINE
  8
0
 10
113.074
 20
219.144
 11
112.886
 21
219.158
  0
LINE
  8
0
 10
-123.16
 20
163.019
 11
-123.346
 21
163.051
  0
LINE
  8
0
 10
-123.346
 20
163.051
 11
-123.526
 21
163.107
  0
LINE
  8
0
 10
-123.526
 20
163.107
 11
-123.697
 21
163.185
  0
LINE
  8
0
 10
-123.697
 20
163.185
 11
-123.858
 21
163.284
  0
LINE
  8
0
 10
-123.858
 20
163.284
 11
-124.005
 21
163.402
  0
LINE
  8
0
 10
-124.005
 20
163.402
 11
-124.135
 21
163.537
  0
LINE
  8
0
 10
-124.135
 20
163.537
 11
-124.248
 21
163.688
  0
LINE
  8
0
 10
-124.248
 20
163.688
 11
-124.341
 21
163.852
  0
LINE
  8
0
 10
-124.341
 20
163.852
 11
-124.413
 21
164.026
  0
LINE
  8
0
 10
-124.413
 20
164.026
 11
-124.462
 21
164.208
  0
LINE
  8
0
 10
-124.462
 20
164.208
 11
-124.489
 21
164.394
  0
LINE
  8
0
 10
-124.489
 20
164.394
 11
-124.491
 21
164.583
  0
LINE
  8
0
 10
-124.491
 20
164.583
 11
-124.47
 21
164.77
  0
LINE
  8
0
 10
-124.47
 20
164.77
 11
-124.426
 21
164.953
  0
LINE
  8
0
 10
-124.426
 20
164.953
 11
-124.359
 21
165.129
  0
LINE
  8
0
 10
-124.359
 20
165.129
 11
-124.271
 21
165.295
  0
LINE
  8
0
 10
-124.271
 20
165.295
 11
-124.162
 21
165.449
  0
LINE
  8
0
 10
-124.162
 20
165.449
 11
-124.035
 21
165.588
  0
LINE
  8
0
 10
-124.035
 20
165.588
 11
-123.892
 21
165.71
  0
LINE
  8
0
 10
-123.892
 20
165.71
 11
-123.734
 21
165.814
  0
LINE
  8
0
 10
-123.734
 20
165.814
 11
-123.565
 21
165.896
  0
LINE
  8
0
 10
-123.565
 20
165.896
 11
-123.386
 21
165.957
  0
LINE
  8
0
 10
-123.386
 20
165.957
 11
-123.202
 21
165.995
  0
LINE
  8
0
 10
-123.202
 20
165.995
 11
-123.014
 21
166.009
  0
LINE
  8
0
 10
-123.014
 20
166.009
 11
-122.826
 21
166
  0
LINE
  8
0
 10
-122.826
 20
166
 11
-122.64
 21
165.967
  0
LINE
  8
0
 10
-122.64
 20
165.967
 11
-122.46
 21
165.912
  0
LINE
  8
0
 10
-122.46
 20
165.912
 11
-122.289
 21
165.834
  0
LINE
  8
0
 10
-122.289
 20
165.834
 11
-122.128
 21
165.735
  0
LINE
  8
0
 10
-122.128
 20
165.735
 11
-121.982
 21
165.617
  0
LINE
  8
0
 10
-121.982
 20
165.617
 11
-121.851
 21
165.482
  0
LINE
  8
0
 10
-121.851
 20
165.482
 11
-121.738
 21
165.331
  0
LINE
  8
0
 10
-121.738
 20
165.331
 11
-121.645
 21
165.167
  0
LINE
  8
0
 10
-121.645
 20
165.167
 11
-121.573
 21
164.993
  0
LINE
  8
0
 10
-121.573
 20
164.993
 11
-121.524
 21
164.811
  0
LINE
  8
0
 10
-121.524
 20
164.811
 11
-121.497
 21
164.624
  0
LINE
  8
0
 10
-121.497
 20
164.624
 11
-121.495
 21
164.436
  0
LINE
  8
0
 10
-121.495
 20
164.436
 11
-121.516
 21
164.249
  0
LINE
  8
0
 10
-121.516
 20
164.249
 11
-121.56
 21
164.066
  0
LINE
  8
0
 10
-121.56
 20
164.066
 11
-121.627
 21
163.89
  0
LINE
  8
0
 10
-121.627
 20
163.89
 11
-121.715
 21
163.723
  0
LINE
  8
0
 10
-121.715
 20
163.723
 11
-121.824
 21
163.569
  0
LINE
  8
0
 10
-121.824
 20
163.569
 11
-121.951
 21
163.43
  0
LINE
  8
0
 10
-121.951
 20
163.43
 11
-122.095
 21
163.308
  0
LINE
  8
0
 10
-122.095
 20
163.308
 11
-122.252
 21
163.205
  0
LINE
  8
0
 10
-122.252
 20
163.205
 11
-122.421
 21
163.123
  0
LINE
  8
0
 10
-122.421
 20
163.123
 11
-122.6
 21
163.062
  0
LINE
  8
0
 10
-122.6
 20
163.062
 11
-122.784
 21
163.024
  0
LINE
  8
0
 10
-122.784
 20
163.024
 11
-122.972
 21
163.009
  0
LINE
  8
0
 10
-122.972
 20
163.009
 11
-123.16
 21
163.019
  0
LINE
  8
0
 10
122.784
 20
163.024
 11
122.6
 21
163.062
  0
LINE
  8
0
 10
122.6
 20
163.062
 11
122.421
 21
163.123
  0
LINE
  8
0
 10
122.421
 20
163.123
 11
122.252
 21
163.205
  0
LINE
  8
0
 10
122.252
 20
163.205
 11
122.095
 21
163.308
  0
LINE
  8
0
 10
122.095
 20
163.308
 11
121.951
 21
163.43
  0
LINE
  8
0
 10
121.951
 20
163.43
 11
121.824
 21
163.569
  0
LINE
  8
0
 10
121.824
 20
163.569
 11
121.715
 21
163.723
  0
LINE
  8
0
 10
121.715
 20
163.723
 11
121.627
 21
163.89
  0
LINE
  8
0
 10
121.627
 20
163.89
 11
121.56
 21
164.066
  0
LINE
  8
0
 10
121.56
 20
164.066
 11
121.516
 21
164.249
  0
LINE
  8
0
 10
121.516
 20
164.249
 11
121.495
 21
164.436
  0
LINE
  8
0
 10
121.495
 20
164.436
 11
121.497
 21
164.624
  0
LINE
  8
0
 10
121.497
 20
164.624
 11
121.524
 21
164.811
  0
LINE
  8
0
 10
121.524
 20
164.811
 11
121.573
 21
164.993
  0
LINE
  8
0
 10
121.573
 20
164.993
 11
121.645
 21
165.167
  0
LINE
  8
0
 10
121.645
 20
165.167
 11
121.738
 21
165.331
  0
LINE
  8
0
 10
121.738
 20
165.331
 11
121.851
 21
165.482
  0
LINE
  8
0
 10
121.851
 20
165.482
 11
121.982
 21
165.617
  0
LINE
  8
0
 10
121.982
 20
165.617
 11
122.128
 21
165.735
  0
LINE
  8
0
 10
122.128
 20
165.735
 11
122.289
 21
165.834
  0
LINE
  8
0
 10
122.289
 20
165.834
 11
122.46
 21
165.912
  0
LINE
  8
0
 10
122.46
 20
165.912
 11
122.64
 21
165.967
  0
LINE
  8
0
 10
122.64
 20
165.967
 11
122.826
 21
166
  0
LINE
  8
0
 10
122.826
 20
166
 11
123.014
 21
166.009
  0
LINE
  8
0
 10
123.014
 20
166.009
 11
123.202
 21
165.995
  0
LINE
  8
0
 10
123.202
 20
165.995
 11
123.386
 21
165.957
  0
LINE
  8
0
 10
123.386
 20
165.957
 11
123.565
 21
165.896
  0
LINE
  8
0
 10
123.565
 20
165.896
 11
123.734
 21
165.814
  0
LINE
  8
0
 10
123.734
 20
165.814
 11
123.892
 21
165.71
  0
LINE
  8
0
 10
123.892
 20
165.71
 11
124.035
 21
165.588
  0
LINE
  8
0
 10
124.035
 20
165.588
 11
124.162
 21
165.449
  0
LINE
  8
0
 10
124.162
 20
165.449
 11
124.271
 21
165.295
  0
LINE
  8
0
 10
124.271
 20
165.295
 11
124.359
 21
165.129
  0
LINE
  8
0
 10
124.359
 20
165.129
 11
124.426
 21
164.953
  0
LINE
  8
0
 10
124.426
 20
164.953
 11
124.47
 21
164.77
  0
LINE
  8
0
 10
124.47
 20
164.77
 11
124.491
 21
164.583
  0
LINE
  8
0
 10
124.491
 20
164.583
 11
124.489
 21
164.394
  0
LINE
  8
0
 10
124.489
 20
164.394
 11
124.462
 21
164.208
  0
LINE
  8
0
 10
124.462
 20
164.208
 11
124.413
 21
164.026
  0
LINE
  8
0
 10
124.413
 20
164.026
 11
124.341
 21
163.852
  0
LINE
  8
0
 10
124.341
 20
163.852
 11
124.248
 21
163.688
  0
LINE
  8
0
 10
124.248
 20
163.688
 11
124.135
 21
163.537
  0
LINE
  8
0
 10
124.135
 20
163.537
 11
124.005
 21
163.402
  0
LINE
  8
0
 10
124.005
 20
163.402
 11
123.858
 21
163.284
  0
LINE
  8
0
 10
123.858
 20
163.284
 11
123.697
 21
163.185
  0
LINE
  8
0
 10
123.697
 20
163.185
 11
123.526
 21
163.107
  0
LINE
  8
0
 10
123.526
 20
163.107
 11
123.346
 21
163.051
  0
LINE
  8
0
 10
123.346
 20
163.051
 11
123.16
 21
163.019
  0
LINE
  8
0
 10
123.16
 20
163.019
 11
122.972
 21
163.009
  0
LINE
  8
0
 10
122.972
 20
163.009
 11
122.784
 21
163.024
  0
LINE
  8
0
 10
-24.8999
 20
110.707
 11
-25.0826
 21
110.753
  0
LINE
  8
0
 10
-25.0826
 20
110.753
 11
-25.2583
 21
110.821
  0
LINE
  8
0
 10
-25.2583
 20
110.821
 11
-25.424
 21
110.911
  0
LINE
  8
0
 10
-25.424
 20
110.911
 11
-25.5771
 21
111.02
  0
LINE
  8
0
 10
-25.5771
 20
111.02
 11
-25.7153
 21
111.148
  0
LINE
  8
0
 10
-25.7153
 20
111.148
 11
-25.8364
 21
111.293
  0
LINE
  8
0
 10
-25.8364
 20
111.293
 11
-25.9384
 21
111.451
  0
LINE
  8
0
 10
-25.9384
 20
111.451
 11
-26.0199
 21
111.621
  0
LINE
  8
0
 10
-26.0199
 20
111.621
 11
-26.0793
 21
111.8
  0
LINE
  8
0
 10
-26.0793
 20
111.8
 11
-26.1159
 21
111.984
  0
LINE
  8
0
 10
-26.1159
 20
111.984
 11
-26.129
 21
112.172
  0
LINE
  8
0
 10
-26.129
 20
112.172
 11
-26.1185
 21
112.36
  0
LINE
  8
0
 10
-26.1185
 20
112.36
 11
-26.0845
 21
112.546
  0
LINE
  8
0
 10
-26.0845
 20
112.546
 11
-26.0276
 21
112.725
  0
LINE
  8
0
 10
-26.0276
 20
112.725
 11
-25.9485
 21
112.896
  0
LINE
  8
0
 10
-25.9485
 20
112.896
 11
-25.8487
 21
113.056
  0
LINE
  8
0
 10
-25.8487
 20
113.056
 11
-25.7297
 21
113.202
  0
LINE
  8
0
 10
-25.7297
 20
113.202
 11
-25.5933
 21
113.332
  0
LINE
  8
0
 10
-25.5933
 20
113.332
 11
-25.4416
 21
113.444
  0
LINE
  8
0
 10
-25.4416
 20
113.444
 11
-25.2772
 21
113.536
  0
LINE
  8
0
 10
-25.2772
 20
113.536
 11
-25.1026
 21
113.606
  0
LINE
  8
0
 10
-25.1026
 20
113.606
 11
-24.9204
 21
113.654
  0
LINE
  8
0
 10
-24.9204
 20
113.654
 11
-24.7337
 21
113.679
  0
LINE
  8
0
 10
-24.7337
 20
113.679
 11
-24.5453
 21
113.68
  0
LINE
  8
0
 10
-24.5453
 20
113.68
 11
-24.3583
 21
113.658
  0
LINE
  8
0
 10
-24.3583
 20
113.658
 11
-24.1755
 21
113.613
  0
LINE
  8
0
 10
-24.1755
 20
113.613
 11
-23.9999
 21
113.544
  0
LINE
  8
0
 10
-23.9999
 20
113.544
 11
-23.8342
 21
113.455
  0
LINE
  8
0
 10
-23.8342
 20
113.455
 11
-23.681
 21
113.345
  0
LINE
  8
0
 10
-23.681
 20
113.345
 11
-23.5428
 21
113.217
  0
LINE
  8
0
 10
-23.5428
 20
113.217
 11
-23.4217
 21
113.073
  0
LINE
  8
0
 10
-23.4217
 20
113.073
 11
-23.3197
 21
112.915
  0
LINE
  8
0
 10
-23.3197
 20
112.915
 11
-23.2383
 21
112.745
  0
LINE
  8
0
 10
-23.2383
 20
112.745
 11
-23.1788
 21
112.566
  0
LINE
  8
0
 10
-23.1788
 20
112.566
 11
-23.1423
 21
112.381
  0
LINE
  8
0
 10
-23.1423
 20
112.381
 11
-23.1291
 21
112.193
  0
LINE
  8
0
 10
-23.1291
 20
112.193
 11
-23.1396
 21
112.005
  0
LINE
  8
0
 10
-23.1396
 20
112.005
 11
-23.1736
 21
111.82
  0
LINE
  8
0
 10
-23.1736
 20
111.82
 11
-23.2306
 21
111.64
  0
LINE
  8
0
 10
-23.2306
 20
111.64
 11
-23.3096
 21
111.469
  0
LINE
  8
0
 10
-23.3096
 20
111.469
 11
-23.4094
 21
111.31
  0
LINE
  8
0
 10
-23.4094
 20
111.31
 11
-23.5285
 21
111.164
  0
LINE
  8
0
 10
-23.5285
 20
111.164
 11
-23.6649
 21
111.034
  0
LINE
  8
0
 10
-23.6649
 20
111.034
 11
-23.8165
 21
110.922
  0
LINE
  8
0
 10
-23.8165
 20
110.922
 11
-23.9809
 21
110.83
  0
LINE
  8
0
 10
-23.9809
 20
110.83
 11
-24.1556
 21
110.759
  0
LINE
  8
0
 10
-24.1556
 20
110.759
 11
-24.3377
 21
110.711
  0
LINE
  8
0
 10
-24.3377
 20
110.711
 11
-24.5244
 21
110.686
  0
LINE
  8
0
 10
-24.5244
 20
110.686
 11
-24.7128
 21
110.685
  0
LINE
  8
0
 10
-24.7128
 20
110.685
 11
-24.8999
 21
110.707
  0
LINE
  8
0
 10
24.5244
 20
110.686
 11
24.3377
 21
110.711
  0
LINE
  8
0
 10
24.3377
 20
110.711
 11
24.1556
 21
110.759
  0
LINE
  8
0
 10
24.1556
 20
110.759
 11
23.9809
 21
110.83
  0
LINE
  8
0
 10
23.9809
 20
110.83
 11
23.8165
 21
110.922
  0
LINE
  8
0
 10
23.8165
 20
110.922
 11
23.6649
 21
111.034
  0
LINE
  8
0
 10
23.6649
 20
111.034
 11
23.5285
 21
111.164
  0
LINE
  8
0
 10
23.5285
 20
111.164
 11
23.4094
 21
111.31
  0
LINE
  8
0
 10
23.4094
 20
111.31
 11
23.3096
 21
111.469
  0
LINE
  8
0
 10
23.3096
 20
111.469
 11
23.2306
 21
111.64
  0
LINE
  8
0
 10
23.2306
 20
111.64
 11
23.1736
 21
111.82
  0
LINE
  8
0
 10
23.1736
 20
111.82
 11
23.1396
 21
112.005
  0
LINE
  8
0
 10
23.1396
 20
112.005
 11
23.1291
 21
112.193
  0
LINE
  8
0
 10
23.1291
 20
112.193
 11
23.1423
 21
112.381
  0
LINE
  8
0
 10
23.1423
 20
112.381
 11
23.1788
 21
112.566
  0
LINE
  8
0
 10
23.1788
 20
112.566
 11
23.2383
 21
112.745
  0
LINE
  8
0
 10
23.2383
 20
112.745
 11
23.3197
 21
112.915
  0
LINE
  8
0
 10
23.3197
 20
112.915
 11
23.4217
 21
113.073
  0
LINE
  8
0
 10
23.4217
 20
113.073
 11
23.5428
 21
113.217
  0
LINE
  8
0
 10
23.5428
 20
113.217
 11
23.681
 21
113.345
  0
LINE
  8
0
 10
23.681
 20
113.345
 11
23.8342
 21
113.455
  0
LINE
  8
0
 10
23.8342
 20
113.455
 11
23.9999
 21
113.544
  0
LINE
  8
0
 10
23.9999
 20
113.544
 11
24.1755
 21
113.613
  0
LINE
  8
0
 10
24.1755
 20
113.613
 11
24.3583
 21
113.658
  0
LINE
  8
0
 10
24.3583
 20
113.658
 11
24.5453
 21
113.68
  0
LINE
  8
0
 10
24.5453
 20
113.68
 11
24.7337
 21
113.679
  0
LINE
  8
0
 10
24.7337
 20
113.679
 11
24.9204
 21
113.654
  0
LINE
  8
0
 10
24.9204
 20
113.654
 11
25.1026
 21
113.606
  0
LINE
  8
0
 10
25.1026
 20
113.606
 11
25.2772
 21
113.536
  0
LINE
  8
0
 10
25.2772
 20
113.536
 11
25.4416
 21
113.444
  0
LINE
  8
0
 10
25.4416
 20
113.444
 11
25.5933
 21
113.332
  0
LINE
  8
0
 10
25.5933
 20
113.332
 11
25.7297
 21
113.202
  0
LINE
  8
0
 10
25.7297
 20
113.202
 11
25.8487
 21
113.056
  0
LINE
  8
0
 10
25.8487
 20
113.056
 11
25.9485
 21
112.896
  0
LINE
  8
0
 10
25.9485
 20
112.896
 11
26.0276
 21
112.725
  0
LINE
  8
0
 10
26.0276
 20
112.725
 11
26.0845
 21
112.546
  0
LINE
  8
0
 10
26.0845
 20
112.546
 11
26.1185
 21
112.36
  0
LINE
  8
0
 10
26.1185
 20
112.36
 11
26.129
 21
112.172
  0
LINE
  8
0
 10
26.129
 20
112.172
 11
26.1159
 21
111.984
  0
LINE
  8
0
 10
26.1159
 20
111.984
 11
26.0793
 21
111.8
  0
LINE
  8
0
 10
26.0793
 20
111.8
 11
26.0199
 21
111.621
  0
LINE
  8
0
 10
26.0199
 20
111.621
 11
25.9384
 21
111.451
  0
LINE
  8
0
 10
25.9384
 20
111.451
 11
25.8364
 21
111.293
  0
LINE
  8
0
 10
25.8364
 20
111.293
 11
25.7153
 21
111.148
  0
LINE
  8
0
 10
25.7153
 20
111.148
 11
25.5771
 21
111.02
  0
LINE
  8
0
 10
25.5771
 20
111.02
 11
25.424
 21
110.911
  0
LINE
  8
0
 10
25.424
 20
110.911
 11
25.2583
 21
110.821
  0
LINE
  8
0
 10
25.2583
 20
110.821
 11
25.0826
 21
110.753
  0
LINE
  8
0
 10
25.0826
 20
110.753
 11
24.8999
 21
110.707
  0
LINE
  8
0
 10
24.8999
 20
110.707
 11
24.7128
 21
110.685
  0
LINE
  8
0
 10
24.7128
 20
110.685
 11
24.5244
 21
110.686
  0
LINE
  8
0
 10
25.7122
 20
-23.7186
 11
26.4433
 21
-23.5363
  0
LINE
  8
0
 10
26.4433
 20
-23.5363
 11
27.1458
 21
-23.2639
  0
LINE
  8
0
 10
27.1458
 20
-23.2639
 11
125.81
 21
29.2117
  0
LINE
  8
0
 10
125.81
 20
29.2117
 11
126.452
 21
29.6065
  0
LINE
  8
0
 10
126.452
 20
29.6065
 11
127.039
 21
30.0786
  0
LINE
  8
0
 10
127.039
 20
30.0786
 11
127.562
 21
30.6206
  0
LINE
  8
0
 10
127.562
 20
30.6206
 11
128.014
 21
31.224
  0
LINE
  8
0
 10
128.014
 20
31.224
 11
128.386
 21
31.8791
  0
LINE
  8
0
 10
128.386
 20
31.8791
 11
128.673
 21
32.5757
  0
LINE
  8
0
 10
128.673
 20
32.5757
 11
128.87
 21
33.3029
  0
LINE
  8
0
 10
128.87
 20
33.3029
 11
128.975
 21
34.049
  0
LINE
  8
0
 10
128.975
 20
34.049
 11
128.986
 21
34.8024
  0
LINE
  8
0
 10
128.986
 20
34.8024
 11
128.902
 21
35.5512
  0
LINE
  8
0
 10
128.902
 20
35.5512
 11
119.004
 21
91.6853
  0
LINE
  8
0
 10
119.004
 20
91.6853
 11
118.827
 21
92.4176
  0
LINE
  8
0
 10
118.827
 20
92.4176
 11
118.559
 21
93.122
  0
LINE
  8
0
 10
118.559
 20
93.122
 11
118.205
 21
93.7873
  0
LINE
  8
0
 10
118.205
 20
93.7873
 11
117.771
 21
94.403
  0
LINE
  8
0
 10
117.771
 20
94.403
 11
117.263
 21
94.9594
  0
LINE
  8
0
 10
117.263
 20
94.9594
 11
116.689
 21
95.4478
  0
LINE
  8
0
 10
116.689
 20
95.4478
 11
116.059
 21
95.8604
  0
LINE
  8
0
 10
116.059
 20
95.8604
 11
115.382
 21
96.1907
  0
LINE
  8
0
 10
115.382
 20
96.1907
 11
114.668
 21
96.4335
  0
LINE
  8
0
 10
114.668
 20
96.4335
 11
113.93
 21
96.585
  0
LINE
  8
0
 10
113.93
 20
96.585
 11
113.179
 21
96.6428
  0
LINE
  8
0
 10
113.179
 20
96.6428
 11
-113.179
 21
96.6428
  0
LINE
  8
0
 10
-113.179
 20
96.6428
 11
-113.93
 21
96.585
  0
LINE
  8
0
 10
-113.93
 20
96.585
 11
-114.668
 21
96.4335
  0
LINE
  8
0
 10
-114.668
 20
96.4335
 11
-115.382
 21
96.1907
  0
LINE
  8
0
 10
-115.382
 20
96.1907
 11
-116.059
 21
95.8604
  0
LINE
  8
0
 10
-116.059
 20
95.8604
 11
-116.689
 21
95.4478
  0
LINE
  8
0
 10
-116.689
 20
95.4478
 11
-117.263
 21
94.9594
  0
LINE
  8
0
 10
-117.263
 20
94.9594
 11
-117.771
 21
94.403
  0
LINE
  8
0
 10
-117.771
 20
94.403
 11
-118.205
 21
93.7873
  0
LINE
  8
0
 10
-118.205
 20
93.7873
 11
-118.559
 21
93.122
  0
LINE
  8
0
 10
-118.559
 20
93.122
 11
-118.827
 21
92.4176
  0
LINE
  8
0
 10
-118.827
 20
92.4176
 11
-119.004
 21
91.6853
  0
LINE
  8
0
 10
-119.004
 20
91.6853
 11
-128.902
 21
35.5512
  0
LINE
  8
0
 10
-128.902
 20
35.5512
 11
-128.986
 21
34.8024
  0
LINE
  8
0
 10
-128.986
 20
34.8024
 11
-128.975
 21
34.049
  0
LINE
  8
0
 10
-128.975
 20
34.049
 11
-128.87
 21
33.3029
  0
LINE
  8
0
 10
-128.87
 20
33.3029
 11
-128.673
 21
32.5757
  0
LINE
  8
0
 10
-128.673
 20
32.5757
 11
-128.386
 21
31.8791
  0
LINE
  8
0
 10
-128.386
 20
31.8791
 11
-128.014
 21
31.224
  0
LINE
  8
0
 10
-128.014
 20
31.224
 11
-127.562
 21
30.6206
  0
LINE
  8
0
 10
-127.562
 20
30.6206
 11
-127.039
 21
30.0786
  0
LINE
  8
0
 10
-127.039
 20
30.0786
 11
-126.452
 21
29.6065
  0
LINE
  8
0
 10
-126.452
 20
29.6065
 11
-125.81
 21
29.2117
  0
LINE
  8
0
 10
-125.81
 20
29.2117
 11
-27.1458
 21
-23.2639
  0
LINE
  8
0
 10
-27.1458
 20
-23.2639
 11
-26.4433
 21
-23.5363
  0
LINE
  8
0
 10
-26.4433
 20
-23.5363
 11
-25.7122
 21
-23.7186
  0
LINE
  8
0
 10
-25.7122
 20
-23.7186
 11
-24.964
 21
-23.8078
  0
LINE
  8
0
 10
-24.964
 20
-23.8078
 11
24.964
 21
-23.8078
  0
LINE
  8
0
 10
24.964
 20
-23.8078
 11
25.7122
 21
-23.7186
  0
LINE
  8
0
 10
23.5288
 20
89.158
 11
23.3443
 21
89.1959
  0
LINE
  8
0
 10
23.3443
 20
89.1959
 11
23.166
 21
89.2566
  0
LINE
  8
0
 10
23.166
 20
89.2566
 11
22.9967
 21
89.3392
  0
LINE
  8
0
 10
22.9967
 20
89.3392
 11
22.839
 21
89.4423
  0
LINE
  8
0
 10
22.839
 20
89.4423
 11
22.6956
 21
89.5644
  0
LINE
  8
0
 10
22.6956
 20
89.5644
 11
22.5686
 21
89.7035
  0
LINE
  8
0
 10
22.5686
 20
89.7035
 11
22.46
 21
89.8574
  0
LINE
  8
0
 10
22.46
 20
89.8574
 11
22.3715
 21
90.0237
  0
LINE
  8
0
 10
22.3715
 20
90.0237
 11
22.3046
 21
90.1998
  0
LINE
  8
0
 10
22.3046
 20
90.1998
 11
22.2604
 21
90.3829
  0
LINE
  8
0
 10
22.2604
 20
90.3829
 11
22.2393
 21
90.5701
  0
LINE
  8
0
 10
22.2393
 20
90.5701
 11
22.242
 21
90.7585
  0
LINE
  8
0
 10
22.242
 20
90.7585
 11
22.2682
 21
90.945
  0
LINE
  8
0
 10
22.2682
 20
90.945
 11
22.3176
 21
91.1268
  0
LINE
  8
0
 10
22.3176
 20
91.1268
 11
22.3894
 21
91.3009
  0
LINE
  8
0
 10
22.3894
 20
91.3009
 11
22.4824
 21
91.4647
  0
LINE
  8
0
 10
22.4824
 20
91.4647
 11
22.5953
 21
91.6156
  0
LINE
  8
0
 10
22.5953
 20
91.6156
 11
22.7261
 21
91.7511
  0
LINE
  8
0
 10
22.7261
 20
91.7511
 11
22.8729
 21
91.8691
  0
LINE
  8
0
 10
22.8729
 20
91.8691
 11
23.0334
 21
91.9678
  0
LINE
  8
0
 10
23.0334
 20
91.9678
 11
23.2049
 21
92.0456
  0
LINE
  8
0
 10
23.2049
 20
92.0456
 11
23.3849
 21
92.1013
  0
LINE
  8
0
 10
23.3849
 20
92.1013
 11
23.5704
 21
92.134
  0
LINE
  8
0
 10
23.5704
 20
92.134
 11
23.7585
 21
92.1432
  0
LINE
  8
0
 10
23.7585
 20
92.1432
 11
23.9463
 21
92.1288
  0
LINE
  8
0
 10
23.9463
 20
92.1288
 11
24.1308
 21
92.0909
  0
LINE
  8
0
 10
24.1308
 20
92.0909
 11
24.3092
 21
92.0302
  0
LINE
  8
0
 10
24.3092
 20
92.0302
 11
24.4785
 21
91.9476
  0
LINE
  8
0
 10
24.4785
 20
91.9476
 11
24.6361
 21
91.8445
  0
LINE
  8
0
 10
24.6361
 20
91.8445
 11
24.7796
 21
91.7224
  0
LINE
  8
0
 10
24.7796
 20
91.7224
 11
24.9066
 21
91.5833
  0
LINE
  8
0
 10
24.9066
 20
91.5833
 11
25.0152
 21
91.4294
  0
LINE
  8
0
 10
25.0152
 20
91.4294
 11
25.1036
 21
91.2631
  0
LINE
  8
0
 10
25.1036
 20
91.2631
 11
25.1705
 21
91.087
  0
LINE
  8
0
 10
25.1705
 20
91.087
 11
25.2148
 21
90.9039
  0
LINE
  8
0
 10
25.2148
 20
90.9039
 11
25.2358
 21
90.7167
  0
LINE
  8
0
 10
25.2358
 20
90.7167
 11
25.2331
 21
90.5283
  0
LINE
  8
0
 10
25.2331
 20
90.5283
 11
25.2069
 21
90.3418
  0
LINE
  8
0
 10
25.2069
 20
90.3418
 11
25.1575
 21
90.16
  0
LINE
  8
0
 10
25.1575
 20
90.16
 11
25.0858
 21
89.9858
  0
LINE
  8
0
 10
25.0858
 20
89.9858
 11
24.9927
 21
89.8221
  0
LINE
  8
0
 10
24.9927
 20
89.8221
 11
24.8799
 21
89.6712
  0
LINE
  8
0
 10
24.8799
 20
89.6712
 11
24.749
 21
89.5357
  0
LINE
  8
0
 10
24.749
 20
89.5357
 11
24.6022
 21
89.4177
  0
LINE
  8
0
 10
24.6022
 20
89.4177
 11
24.4418
 21
89.319
  0
LINE
  8
0
 10
24.4418
 20
89.319
 11
24.2702
 21
89.2412
  0
LINE
  8
0
 10
24.2702
 20
89.2412
 11
24.0903
 21
89.1855
  0
LINE
  8
0
 10
24.0903
 20
89.1855
 11
23.9048
 21
89.1527
  0
LINE
  8
0
 10
23.9048
 20
89.1527
 11
23.7166
 21
89.1435
  0
LINE
  8
0
 10
23.7166
 20
89.1435
 11
23.5288
 21
89.158
  0
LINE
  8
0
 10
-23.9048
 20
89.1527
 11
-24.0903
 21
89.1855
  0
LINE
  8
0
 10
-24.0903
 20
89.1855
 11
-24.2702
 21
89.2412
  0
LINE
  8
0
 10
-24.2702
 20
89.2412
 11
-24.4418
 21
89.319
  0
LINE
  8
0
 10
-24.4418
 20
89.319
 11
-24.6022
 21
89.4177
  0
LINE
  8
0
 10
-24.6022
 20
89.4177
 11
-24.749
 21
89.5357
  0
LINE
  8
0
 10
-24.749
 20
89.5357
 11
-24.8799
 21
89.6712
  0
LINE
  8
0
 10
-24.8799
 20
89.6712
 11
-24.9927
 21
89.8221
  0
LINE
  8
0
 10
-24.9927
 20
89.8221
 11
-25.0858
 21
89.9858
  0
LINE
  8
0
 10
-25.0858
 20
89.9858
 11
-25.1575
 21
90.16
  0
LINE
  8
0
 10
-25.1575
 20
90.16
 11
-25.2069
 21
90.3418
  0
LINE
  8
0
 10
-25.2069
 20
90.3418
 11
-25.2331
 21
90.5283
  0
LINE
  8
0
 10
-25.2331
 20
90.5283
 11
-25.2358
 21
90.7167
  0
LINE
  8
0
 10
-25.2358
 20
90.7167
 11
-25.2148
 21
90.9039
  0
LINE
  8
0
 10
-25.2148
 20
90.9039
 11
-25.1705
 21
91.087
  0
LINE
  8
0
 10
-25.1705
 20
91.087
 11
-25.1036
 21
91.2631
  0
LINE
  8
0
 10
-25.1036
 20
91.2631
 11
-25.0152
 21
91.4294
  0
LINE
  8
0
 10
-25.0152
 20
91.4294
 11
-24.9066
 21
91.5833
  0
LINE
  8
0
 10
-24.9066
 20
91.5833
 11
-24.7796
 21
91.7224
  0
LINE
  8
0
 10
-24.7796
 20
91.7224
 11
-24.6361
 21
91.8445
  0
LINE
  8
0
 10
-24.6361
 20
91.8445
 11
-24.4785
 21
91.9476
  0
LINE
  8
0
 10
-24.4785
 20
91.9476
 11
-24.3092
 21
92.0302
  0
LINE
  8
0
 10
-24.3092
 20
92.0302
 11
-24.1308
 21
92.0909
  0
LINE
  8
0
 10
-24.1308
 20
92.0909
 11
-23.9463
 21
92.1288
  0
LINE
  8
0
 10
-23.9463
 20
92.1288
 11
-23.7585
 21
92.1432
  0
LINE
  8
0
 10
-23.7585
 20
92.1432
 11
-23.5704
 21
92.134
  0
LINE
  8
0
 10
-23.5704
 20
92.134
 11
-23.3849
 21
92.1013
  0
LINE
  8
0
 10
-23.3849
 20
92.1013
 11
-23.2049
 21
92.0456
  0
LINE
  8
0
 10
-23.2049
 20
92.0456
 11
-23.0334
 21
91.9678
  0
LINE
  8
0
 10
-23.0334
 20
91.9678
 11
-22.8729
 21
91.8691
  0
LINE
  8
0
 10
-22.8729
 20
91.8691
 11
-22.7261
 21
91.7511
  0
LINE
  8
0
 10
-22.7261
 20
91.7511
 11
-22.5953
 21
91.6156
  0
LINE
  8
0
 10
-22.5953
 20
91.6156
 11
-22.4824
 21
91.4647
  0
LINE
  8
0
 10
-22.4824
 20
91.4647
 11
-22.3894
 21
91.3009
  0
LINE
  8
0
 10
-22.3894
 20
91.3009
 11
-22.3176
 21
91.1268
  0
LINE
  8
0
 10
-22.3176
 20
91.1268
 11
-22.2682
 21
90.945
  0
LINE
  8
0
 10
-22.2682
 20
90.945
 11
-22.242
 21
90.7585
  0
LINE
  8
0
 10
-22.242
 20
90.7585
 11
-22.2393
 21
90.5701
  0
LINE
  8
0
 10
-22.2393
 20
90.5701
 11
-22.2604
 21
90.3829
  0
LINE
  8
0
 10
-22.2604
 20
90.3829
 11
-22.3046
 21
90.1998
  0
LINE
  8
0
 10
-22.3046
 20
90.1998
 11
-22.3715
 21
90.0237
  0
LINE
  8
0
 10
-22.3715
 20
90.0237
 11
-22.46
 21
89.8574
  0
LINE
  8
0
 10
-22.46
 20
89.8574
 11
-22.5686
 21
89.7035
  0
LINE
  8
0
 10
-22.5686
 20
89.7035
 11
-22.6956
 21
89.5644
  0
LINE
  8
0
 10
-22.6956
 20
89.5644
 11
-22.839
 21
89.4423
  0
LINE
  8
0
 10
-22.839
 20
89.4423
 11
-22.9967
 21
89.3392
  0
LINE
  8
0
 10
-22.9967
 20
89.3392
 11
-23.166
 21
89.2566
  0
LINE
  8
0
 10
-23.166
 20
89.2566
 11
-23.3443
 21
89.1959
  0
LINE
  8
0
 10
-23.3443
 20
89.1959
 11
-23.5288
 21
89.158
  0
LINE
  8
0
 10
-23.5288
 20
89.158
 11
-23.7166
 21
89.1435
  0
LINE
  8
0
 10
-23.7166
 20
89.1435
 11
-23.9048
 21
89.1527
  0
LINE
  8
0
 10
112.886
 20
89.158
 11
112.702
 21
89.1959
  0
LINE
  8
0
 10
112.702
 20
89.1959
 11
112.523
 21
89.2566
  0
LINE
  8
0
 10
112.523
 20
89.2566
 11
112.354
 21
89.3391
  0
LINE
  8
0
 10
112.354
 20
89.3391
 11
112.197
 21
89.4423
  0
LINE
  8
0
 10
112.197
 20
89.4423
 11
112.053
 21
89.5644
  0
LINE
  8
0
 10
112.053
 20
89.5644
 11
111.926
 21
89.7035
  0
LINE
  8
0
 10
111.926
 20
89.7035
 11
111.818
 21
89.8574
  0
LINE
  8
0
 10
111.818
 20
89.8574
 11
111.729
 21
90.0237
  0
LINE
  8
0
 10
111.729
 20
90.0237
 11
111.662
 21
90.1998
  0
LINE
  8
0
 10
111.662
 20
90.1998
 11
111.618
 21
90.3829
  0
LINE
  8
0
 10
111.618
 20
90.3829
 11
111.597
 21
90.5701
  0
LINE
  8
0
 10
111.597
 20
90.5701
 11
111.6
 21
90.7585
  0
LINE
  8
0
 10
111.6
 20
90.7585
 11
111.626
 21
90.945
  0
LINE
  8
0
 10
111.626
 20
90.945
 11
111.675
 21
91.1268
  0
LINE
  8
0
 10
111.675
 20
91.1268
 11
111.747
 21
91.3009
  0
LINE
  8
0
 10
111.747
 20
91.3009
 11
111.84
 21
91.4647
  0
LINE
  8
0
 10
111.84
 20
91.4647
 11
111.953
 21
91.6156
  0
LINE
  8
0
 10
111.953
 20
91.6156
 11
112.084
 21
91.7511
  0
LINE
  8
0
 10
112.084
 20
91.7511
 11
112.23
 21
91.8691
  0
LINE
  8
0
 10
112.23
 20
91.8691
 11
112.391
 21
91.9678
  0
LINE
  8
0
 10
112.391
 20
91.9678
 11
112.562
 21
92.0456
  0
LINE
  8
0
 10
112.562
 20
92.0456
 11
112.742
 21
92.1013
  0
LINE
  8
0
 10
112.742
 20
92.1013
 11
112.928
 21
92.134
  0
LINE
  8
0
 10
112.928
 20
92.134
 11
113.116
 21
92.1432
  0
LINE
  8
0
 10
113.116
 20
92.1432
 11
113.304
 21
92.1288
  0
LINE
  8
0
 10
113.304
 20
92.1288
 11
113.488
 21
92.0909
  0
LINE
  8
0
 10
113.488
 20
92.0909
 11
113.667
 21
92.0302
  0
LINE
  8
0
 10
113.667
 20
92.0302
 11
113.836
 21
91.9476
  0
LINE
  8
0
 10
113.836
 20
91.9476
 11
113.994
 21
91.8445
  0
LINE
  8
0
 10
113.994
 20
91.8445
 11
114.137
 21
91.7224
  0
LINE
  8
0
 10
114.137
 20
91.7224
 11
114.264
 21
91.5833
  0
LINE
  8
0
 10
114.264
 20
91.5833
 11
114.373
 21
91.4294
  0
LINE
  8
0
 10
114.373
 20
91.4294
 11
114.461
 21
91.263
  0
LINE
  8
0
 10
114.461
 20
91.263
 11
114.528
 21
91.0869
  0
LINE
  8
0
 10
114.528
 20
91.0869
 11
114.572
 21
90.9039
  0
LINE
  8
0
 10
114.572
 20
90.9039
 11
114.593
 21
90.7167
  0
LINE
  8
0
 10
114.593
 20
90.7167
 11
114.591
 21
90.5283
  0
LINE
  8
0
 10
114.591
 20
90.5283
 11
114.564
 21
90.3418
  0
LINE
  8
0
 10
114.564
 20
90.3418
 11
114.515
 21
90.16
  0
LINE
  8
0
 10
114.515
 20
90.16
 11
114.443
 21
89.9858
  0
LINE
  8
0
 10
114.443
 20
89.9858
 11
114.35
 21
89.8221
  0
LINE
  8
0
 10
114.35
 20
89.8221
 11
114.237
 21
89.6712
  0
LINE
  8
0
 10
114.237
 20
89.6712
 11
114.107
 21
89.5357
  0
LINE
  8
0
 10
114.107
 20
89.5357
 11
113.96
 21
89.4177
  0
LINE
  8
0
 10
113.96
 20
89.4177
 11
113.799
 21
89.319
  0
LINE
  8
0
 10
113.799
 20
89.319
 11
113.628
 21
89.2411
  0
LINE
  8
0
 10
113.628
 20
89.2411
 11
113.448
 21
89.1854
  0
LINE
  8
0
 10
113.448
 20
89.1854
 11
113.262
 21
89.1527
  0
LINE
  8
0
 10
113.262
 20
89.1527
 11
113.074
 21
89.1435
  0
LINE
  8
0
 10
113.074
 20
89.1435
 11
112.886
 21
89.158
  0
LINE
  8
0
 10
-113.262
 20
89.1527
 11
-113.448
 21
89.1854
  0
LINE
  8
0
 10
-113.448
 20
89.1854
 11
-113.628
 21
89.2411
  0
LINE
  8
0
 10
-113.628
 20
89.2411
 11
-113.799
 21
89.319
  0
LINE
  8
0
 10
-113.799
 20
89.319
 11
-113.96
 21
89.4177
  0
LINE
  8
0
 10
-113.96
 20
89.4177
 11
-114.107
 21
89.5357
  0
LINE
  8
0
 10
-114.107
 20
89.5357
 11
-114.237
 21
89.6712
  0
LINE
  8
0
 10
-114.237
 20
89.6712
 11
-114.35
 21
89.8221
  0
LINE
  8
0
 10
-114.35
 20
89.8221
 11
-114.443
 21
89.9858
  0
LINE
  8
0
 10
-114.443
 20
89.9858
 11
-114.515
 21
90.16
  0
LINE
  8
0
 10
-114.515
 20
90.16
 11
-114.564
 21
90.3418
  0
LINE
  8
0
 10
-114.564
 20
90.3418
 11
-114.591
 21
90.5283
  0
LINE
  8
0
 10
-114.591
 20
90.5283
 11
-114.593
 21
90.7167
  0
LINE
  8
0
 10
-114.593
 20
90.7167
 11
-114.572
 21
90.9039
  0
LINE
  8
0
 10
-114.572
 20
90.9039
 11
-114.528
 21
91.0869
  0
LINE
  8
0
 10
-114.528
 20
91.0869
 11
-114.461
 21
91.263
  0
LINE
  8
0
 10
-114.461
 20
91.263
 11
-114.373
 21
91.4294
  0
LINE
  8
0
 10
-114.373
 20
91.4294
 11
-114.264
 21
91.5833
  0
LINE
  8
0
 10
-114.264
 20
91.5833
 11
-114.137
 21
91.7224
  0
LINE
  8
0
 10
-114.137
 20
91.7224
 11
-113.994
 21
91.8445
  0
LINE
  8
0
 10
-113.994
 20
91.8445
 11
-113.836
 21
91.9476
  0
LINE
  8
0
 10
-113.836
 20
91.9476
 11
-113.667
 21
92.0302
  0
LINE
  8
0
 10
-113.667
 20
92.0302
 11
-113.488
 21
92.0909
  0
LINE
  8
0
 10
-113.488
 20
92.0909
 11
-113.304
 21
92.1288
  0
LINE
  8
0
 10
-113.304
 20
92.1288
 11
-113.116
 21
92.1432
  0
LINE
  8
0
 10
-113.116
 20
92.1432
 11
-112.928
 21
92.134
  0
LINE
  8
0
 10
-112.928
 20
92.134
 11
-112.742
 21
92.1013
  0
LINE
  8
0
 10
-112.742
 20
92.1013
 11
-112.562
 21
92.0456
  0
LINE
  8
0
 10
-112.562
 20
92.0456
 11
-112.391
 21
91.9678
  0
LINE
  8
0
 10
-112.391
 20
91.9678
 11
-112.23
 21
91.8691
  0
LINE
  8
0
 10
-112.23
 20
91.8691
 11
-112.084
 21
91.7511
  0
LINE
  8
0
 10
-112.084
 20
91.7511
 11
-111.953
 21
91.6156
  0
LINE
  8
0
 10
-111.953
 20
91.6156
 11
-111.84
 21
91.4647
  0
LINE
  8
0
 10
-111.84
 20
91.4647
 11
-111.747
 21
91.3009
  0
LINE
  8
0
 10
-111.747
 20
91.3009
 11
-111.675
 21
91.1268
  0
LINE
  8
0
 10
-111.675
 20
91.1268
 11
-111.626
 21
90.945
  0
LINE
  8
0
 10
-111.626
 20
90.945
 11
-111.6
 21
90.7585
  0
LINE
  8
0
 10
-111.6
 20
90.7585
 11
-111.597
 21
90.5701
  0
LINE
  8
0
 10
-111.597
 20
90.5701
 11
-111.618
 21
90.3829
  0
LINE
  8
0
 10
-111.618
 20
90.3829
 11
-111.662
 21
90.1998
  0
LINE
  8
0
 10
-111.662
 20
90.1998
 11
-111.729
 21
90.0237
  0
LINE
  8
0
 10
-111.729
 20
90.0237
 11
-111.818
 21
89.8574
  0
LINE
  8
0
 10
-111.818
 20
89.8574
 11
-111.926
 21
89.7035
  0
LINE
  8
0
 10
-111.926
 20
89.7035
 11
-112.053
 21
89.5644
  0
LINE
  8
0
 10
-112.053
 20
89.5644
 11
-112.197
 21
89.4423
  0
LINE
  8
0
 10
-112.197
 20
89.4423
 11
-112.354
 21
89.3391
  0
LINE
  8
0
 10
-112.354
 20
89.3391
 11
-112.523
 21
89.2566
  0
LINE
  8
0
 10
-112.523
 20
89.2566
 11
-112.702
 21
89.1959
  0
LINE
  8
0
 10
-112.702
 20
89.1959
 11
-112.886
 21
89.158
  0
LINE
  8
0
 10
-112.886
 20
89.158
 11
-113.074
 21
89.1435
  0
LINE
  8
0
 10
-113.074
 20
89.1435
 11
-113.262
 21
89.1527
  0
LINE
  8
0
 10
-68.7602
 20
74.2101
 11
-66.3343
 21
87.9678
  0
LINE
  8
0
 10
-66.3343
 20
87.9678
 11
-52.5766
 21
85.5419
  0
LINE
  8
0
 10
-52.5766
 20
85.5419
 11
-55.0024
 21
71.7842
  0
LINE
  8
0
 10
-55.0024
 20
71.7842
 11
-68.7602
 21
74.2101
  0
LINE
  8
0
 10
52.5766
 20
85.5419
 11
66.3343
 21
87.9678
  0
LINE
  8
0
 10
66.3343
 20
87.9678
 11
68.7602
 21
74.2101
  0
LINE
  8
0
 10
68.7602
 20
74.2101
 11
55.0024
 21
71.7842
  0
LINE
  8
0
 10
55.0024
 20
71.7842
 11
52.5766
 21
85.5419
  0
LINE
  8
0
 10
71.9825
 20
84.902
 11
85.7402
 21
87.3279
  0
LINE
  8
0
 10
85.7402
 20
87.3279
 11
88.1661
 21
73.5701
  0
LINE
  8
0
 10
88.1661
 20
73.5701
 11
74.4084
 21
71.1443
  0
LINE
  8
0
 10
74.4084
 20
71.1443
 11
71.9825
 21
84.902
  0
LINE
  8
0
 10
-88.1661
 20
73.5701
 11
-85.7402
 21
87.3279
  0
LINE
  8
0
 10
-85.7402
 20
87.3279
 11
-71.9825
 21
84.902
  0
LINE
  8
0
 10
-71.9825
 20
84.902
 11
-74.4084
 21
71.1443
  0
LINE
  8
0
 10
-74.4084
 20
71.1443
 11
-88.1661
 21
73.5701
  0
LINE
  8
0
 10
91.3884
 20
84.2621
 11
105.146
 21
86.688
  0
LINE
  8
0
 10
105.146
 20
86.688
 11
107.572
 21
72.9302
  0
LINE
  8
0
 10
107.572
 20
72.9302
 11
93.8143
 21
70.5044
  0
LINE
  8
0
 10
93.8143
 20
70.5044
 11
91.3884
 21
84.2621
  0
LINE
  8
0
 10
-107.572
 20
72.9302
 11
-105.146
 21
86.688
  0
LINE
  8
0
 10
-105.146
 20
86.688
 11
-91.3884
 21
84.2621
  0
LINE
  8
0
 10
-91.3884
 20
84.2621
 11
-93.8143
 21
70.5044
  0
LINE
  8
0
 10
-93.8143
 20
70.5044
 11
-107.572
 21
72.9302
  0
LINE
  8
0
 10
-50.7434
 20
66.9715
 11
-48.3176
 21
80.7293
  0
LINE
  8
0
 10
-48.3176
 20
80.7293
 11
-34.5598
 21
78.3034
  0
LINE
  8
0
 10
-34.5598
 20
78.3034
 11
-36.9857
 21
64.5457
  0
LINE
  8
0
 10
-36.9857
 20
64.5457
 11
-50.7434
 21
66.9715
  0
LINE
  8
0
 10
34.5598
 20
78.3034
 11
48.3176
 21
80.7293
  0
LINE
  8
0
 10
48.3176
 20
80.7293
 11
50.7434
 21
66.9715
  0
LINE
  8
0
 10
50.7434
 20
66.9715
 11
36.9857
 21
64.5457
  0
LINE
  8
0
 10
36.9857
 20
64.5457
 11
34.5598
 21
78.3034
  0
LINE
  8
0
 10
15.8484
 20
75.0041
 11
29.6062
 21
77.4299
  0
LINE
  8
0
 10
29.6062
 20
77.4299
 11
32.0321
 21
63.6722
  0
LINE
  8
0
 10
32.0321
 20
63.6722
 11
18.2743
 21
61.2463
  0
LINE
  8
0
 10
18.2743
 20
61.2463
 11
15.8484
 21
75.0041
  0
LINE
  8
0
 10
-32.0321
 20
63.6722
 11
-29.6062
 21
77.4299
  0
LINE
  8
0
 10
-29.6062
 20
77.4299
 11
-15.8484
 21
75.0041
  0
LINE
  8
0
 10
-15.8484
 20
75.0041
 11
-18.2743
 21
61.2463
  0
LINE
  8
0
 10
-18.2743
 20
61.2463
 11
-32.0321
 21
63.6722
  0
LINE
  8
0
 10
-72.0595
 20
55.4987
 11
-69.6336
 21
69.2565
  0
LINE
  8
0
 10
-69.6336
 20
69.2565
 11
-55.8759
 21
66.8306
  0
LINE
  8
0
 10
-55.8759
 20
66.8306
 11
-58.3017
 21
53.0728
  0
LINE
  8
0
 10
-58.3017
 20
53.0728
 11
-72.0595
 21
55.4987
  0
LINE
  8
0
 10
55.8759
 20
66.8306
 11
69.6336
 21
69.2565
  0
LINE
  8
0
 10
69.6336
 20
69.2565
 11
72.0595
 21
55.4987
  0
LINE
  8
0
 10
72.0595
 20
55.4987
 11
58.3017
 21
53.0728
  0
LINE
  8
0
 10
58.3017
 20
53.0728
 11
55.8759
 21
66.8306
  0
LINE
  8
0
 10
75.2818
 20
66.1907
 11
89.0396
 21
68.6165
  0
LINE
  8
0
 10
89.0396
 20
68.6165
 11
91.4654
 21
54.8588
  0
LINE
  8
0
 10
91.4654
 20
54.8588
 11
77.7077
 21
52.4329
  0
LINE
  8
0
 10
77.7077
 20
52.4329
 11
75.2818
 21
66.1907
  0
LINE
  8
0
 10
-91.4654
 20
54.8588
 11
-89.0396
 21
68.6165
  0
LINE
  8
0
 10
-89.0396
 20
68.6165
 11
-75.2818
 21
66.1907
  0
LINE
  8
0
 10
-75.2818
 20
66.1907
 11
-77.7077
 21
52.4329
  0
LINE
  8
0
 10
-77.7077
 20
52.4329
 11
-91.4654
 21
54.8588
  0
LINE
  8
0
 10
94.6877
 20
65.5508
 11
108.445
 21
67.9766
  0
LINE
  8
0
 10
108.445
 20
67.9766
 11
110.871
 21
54.2189
  0
LINE
  8
0
 10
110.871
 20
54.2189
 11
97.1136
 21
51.793
  0
LINE
  8
0
 10
97.1136
 20
51.793
 11
94.6877
 21
65.5508
  0
LINE
  8
0
 10
-110.871
 20
54.2189
 11
-108.445
 21
67.9766
  0
LINE
  8
0
 10
-108.445
 20
67.9766
 11
-94.6877
 21
65.5508
  0
LINE
  8
0
 10
-94.6877
 20
65.5508
 11
-97.1136
 21
51.793
  0
LINE
  8
0
 10
-97.1136
 20
51.793
 11
-110.871
 21
54.2189
  0
LINE
  8
0
 10
37.8591
 20
59.5921
 11
51.6169
 21
62.0179
  0
LINE
  8
0
 10
51.6169
 20
62.0179
 11
54.0427
 21
48.2602
  0
LINE
  8
0
 10
54.0427
 20
48.2602
 11
40.285
 21
45.8343
  0
LINE
  8
0
 10
40.285
 20
45.8343
 11
37.8591
 21
59.5921
  0
LINE
  8
0
 10
-54.0427
 20
48.2602
 11
-51.6169
 21
62.0179
  0
LINE
  8
0
 10
-51.6169
 20
62.0179
 11
-37.8591
 21
59.5921
  0
LINE
  8
0
 10
-37.8591
 20
59.5921
 11
-40.285
 21
45.8343
  0
LINE
  8
0
 10
-40.285
 20
45.8343
 11
-54.0427
 21
48.2602
  0
LINE
  8
0
 10
-35.3314
 20
44.9608
 11
-32.9055
 21
58.7186
  0
LINE
  8
0
 10
-32.9055
 20
58.7186
 11
-19.1478
 21
56.2927
  0
LINE
  8
0
 10
-19.1478
 20
56.2927
 11
-21.5736
 21
42.535
  0
LINE
  8
0
 10
-21.5736
 20
42.535
 11
-35.3314
 21
44.9608
  0
LINE
  8
0
 10
19.1478
 20
56.2927
 11
32.9055
 21
58.7186
  0
LINE
  8
0
 10
32.9055
 20
58.7186
 11
35.3314
 21
44.9608
  0
LINE
  8
0
 10
35.3314
 20
44.9608
 11
21.5736
 21
42.535
  0
LINE
  8
0
 10
21.5736
 20
42.535
 11
19.1478
 21
56.2927
  0
LINE
  8
0
 10
-75.3588
 20
36.7874
 11
-72.9329
 21
50.5451
  0
LINE
  8
0
 10
-72.9329
 20
50.5451
 11
-59.1752
 21
48.1192
  0
LINE
  8
0
 10
-59.1752
 20
48.1192
 11
-61.601
 21
34.3615
  0
LINE
  8
0
 10
-61.601
 20
34.3615
 11
-75.3588
 21
36.7874
  0
LINE
  8
0
 10
59.1752
 20
48.1192
 11
72.9329
 21
50.5451
  0
LINE
  8
0
 10
72.9329
 20
50.5451
 11
75.3588
 21
36.7874
  0
LINE
  8
0
 10
75.3588
 20
36.7874
 11
61.601
 21
34.3615
  0
LINE
  8
0
 10
61.601
 20
34.3615
 11
59.1752
 21
48.1192
  0
LINE
  8
0
 10
-94.7647
 20
36.1474
 11
-92.3389
 21
49.9052
  0
LINE
  8
0
 10
-92.3389
 20
49.9052
 11
-78.5811
 21
47.4793
  0
LINE
  8
0
 10
-78.5811
 20
47.4793
 11
-81.007
 21
33.7216
  0
LINE
  8
0
 10
-81.007
 20
33.7216
 11
-94.7647
 21
36.1474
  0
LINE
  8
0
 10
78.5811
 20
47.4793
 11
92.3389
 21
49.9052
  0
LINE
  8
0
 10
92.3389
 20
49.9052
 11
94.7647
 21
36.1474
  0
LINE
  8
0
 10
94.7647
 20
36.1474
 11
81.007
 21
33.7216
  0
LINE
  8
0
 10
81.007
 20
33.7216
 11
78.5811
 21
47.4793
  0
LINE
  8
0
 10
-114.171
 20
35.5075
 11
-111.745
 21
49.2653
  0
LINE
  8
0
 10
-111.745
 20
49.2653
 11
-97.9871
 21
46.8394
  0
LINE
  8
0
 10
-97.9871
 20
46.8394
 11
-100.413
 21
33.0817
  0
LINE
  8
0
 10
-100.413
 20
33.0817
 11
-114.171
 21
35.5075
  0
LINE
  8
0
 10
97.9871
 20
46.8394
 11
111.745
 21
49.2653
  0
LINE
  8
0
 10
111.745
 20
49.2653
 11
114.171
 21
35.5075
  0
LINE
  8
0
 10
114.171
 20
35.5075
 11
100.413
 21
33.0817
  0
LINE
  8
0
 10
100.413
 20
33.0817
 11
97.9871
 21
46.8394
  0
LINE
  8
0
 10
-57.342
 20
29.5488
 11
-54.9162
 21
43.3066
  0
LINE
  8
0
 10
-54.9162
 20
43.3066
 11
-41.1584
 21
40.8807
  0
LINE
  8
0
 10
-41.1584
 20
40.8807
 11
-43.5843
 21
27.123
  0
LINE
  8
0
 10
-43.5843
 20
27.123
 11
-57.342
 21
29.5488
  0
LINE
  8
0
 10
41.1584
 20
40.8807
 11
54.9162
 21
43.3066
  0
LINE
  8
0
 10
54.9162
 20
43.3066
 11
57.342
 21
29.5488
  0
LINE
  8
0
 10
57.342
 20
29.5488
 11
43.5843
 21
27.123
  0
LINE
  8
0
 10
43.5843
 20
27.123
 11
41.1584
 21
40.8807
  0
LINE
  8
0
 10
-38.6307
 20
26.2495
 11
-36.2048
 21
40.0072
  0
LINE
  8
0
 10
-36.2048
 20
40.0072
 11
-22.4471
 21
37.5814
  0
LINE
  8
0
 10
-22.4471
 20
37.5814
 11
-24.8729
 21
23.8236
  0
LINE
  8
0
 10
-24.8729
 20
23.8236
 11
-38.6307
 21
26.2495
  0
LINE
  8
0
 10
22.4471
 20
37.5814
 11
36.2048
 21
40.0072
  0
LINE
  8
0
 10
36.2048
 20
40.0072
 11
38.6307
 21
26.2495
  0
LINE
  8
0
 10
38.6307
 20
26.2495
 11
24.8729
 21
23.8236
  0
LINE
  8
0
 10
24.8729
 20
23.8236
 11
22.4471
 21
37.5814
  0
LINE
  8
0
 10
-123.16
 20
33.0187
 11
-123.346
 21
33.0514
  0
LINE
  8
0
 10
-123.346
 20
33.0514
 11
-123.526
 21
33.1071
  0
LINE
  8
0
 10
-123.526
 20
33.1071
 11
-123.697
 21
33.1849
  0
LINE
  8
0
 10
-123.697
 20
33.1849
 11
-123.858
 21
33.2836
  0
LINE
  8
0
 10
-123.858
 20
33.2836
 11
-124.005
 21
33.4017
  0
LINE
  8
0
 10
-124.005
 20
33.4017
 11
-124.135
 21
33.5372
  0
LINE
  8
0
 10
-124.135
 20
33.5372
 11
-124.248
 21
33.688
  0
LINE
  8
0
 10
-124.248
 20
33.688
 11
-124.341
 21
33.8518
  0
LINE
  8
0
 10
-124.341
 20
33.8518
 11
-124.413
 21
34.0259
  0
LINE
  8
0
 10
-124.413
 20
34.0259
 11
-124.462
 21
34.2077
  0
LINE
  8
0
 10
-124.462
 20
34.2077
 11
-124.489
 21
34.3943
  0
LINE
  8
0
 10
-124.489
 20
34.3943
 11
-124.491
 21
34.5826
  0
LINE
  8
0
 10
-124.491
 20
34.5826
 11
-124.47
 21
34.7698
  0
LINE
  8
0
 10
-124.47
 20
34.7698
 11
-124.426
 21
34.9529
  0
LINE
  8
0
 10
-124.426
 20
34.9529
 11
-124.359
 21
35.129
  0
LINE
  8
0
 10
-124.359
 20
35.129
 11
-124.271
 21
35.2953
  0
LINE
  8
0
 10
-124.271
 20
35.2953
 11
-124.162
 21
35.4493
  0
LINE
  8
0
 10
-124.162
 20
35.4493
 11
-124.035
 21
35.5883
  0
LINE
  8
0
 10
-124.035
 20
35.5883
 11
-123.892
 21
35.7104
  0
LINE
  8
0
 10
-123.892
 20
35.7104
 11
-123.734
 21
35.8136
  0
LINE
  8
0
 10
-123.734
 20
35.8136
 11
-123.565
 21
35.8962
  0
LINE
  8
0
 10
-123.565
 20
35.8962
 11
-123.386
 21
35.9569
  0
LINE
  8
0
 10
-123.386
 20
35.9569
 11
-123.202
 21
35.9948
  0
LINE
  8
0
 10
-123.202
 20
35.9948
 11
-123.014
 21
36.0092
  0
LINE
  8
0
 10
-123.014
 20
36.0092
 11
-122.826
 21
36
  0
LINE
  8
0
 10
-122.826
 20
36
 11
-122.64
 21
35.9673
  0
LINE
  8
0
 10
-122.64
 20
35.9673
 11
-122.46
 21
35.9116
  0
LINE
  8
0
 10
-122.46
 20
35.9116
 11
-122.289
 21
35.8338
  0
LINE
  8
0
 10
-122.289
 20
35.8338
 11
-122.128
 21
35.7351
  0
LINE
  8
0
 10
-122.128
 20
35.7351
 11
-121.982
 21
35.617
  0
LINE
  8
0
 10
-121.982
 20
35.617
 11
-121.851
 21
35.4815
  0
LINE
  8
0
 10
-121.851
 20
35.4815
 11
-121.738
 21
35.3307
  0
LINE
  8
0
 10
-121.738
 20
35.3307
 11
-121.645
 21
35.1669
  0
LINE
  8
0
 10
-121.645
 20
35.1669
 11
-121.573
 21
34.9928
  0
LINE
  8
0
 10
-121.573
 20
34.9928
 11
-121.524
 21
34.811
  0
LINE
  8
0
 10
-121.524
 20
34.811
 11
-121.497
 21
34.6244
  0
LINE
  8
0
 10
-121.497
 20
34.6244
 11
-121.495
 21
34.4361
  0
LINE
  8
0
 10
-121.495
 20
34.4361
 11
-121.516
 21
34.2489
  0
LINE
  8
0
 10
-121.516
 20
34.2489
 11
-121.56
 21
34.0658
  0
LINE
  8
0
 10
-121.56
 20
34.0658
 11
-121.627
 21
33.8897
  0
LINE
  8
0
 10
-121.627
 20
33.8897
 11
-121.715
 21
33.7234
  0
LINE
  8
0
 10
-121.715
 20
33.7234
 11
-121.824
 21
33.5694
  0
LINE
  8
0
 10
-121.824
 20
33.5694
 11
-121.951
 21
33.4303
  0
LINE
  8
0
 10
-121.951
 20
33.4303
 11
-122.095
 21
33.3083
  0
LINE
  8
0
 10
-122.095
 20
33.3083
 11
-122.252
 21
33.2051
  0
LINE
  8
0
 10
-122.252
 20
33.2051
 11
-122.421
 21
33.1225
  0
LINE
  8
0
 10
-122.421
 20
33.1225
 11
-122.6
 21
33.0618
  0
LINE
  8
0
 10
-122.6
 20
33.0618
 11
-122.784
 21
33.024
  0
LINE
  8
0
 10
-122.784
 20
33.024
 11
-122.972
 21
33.0095
  0
LINE
  8
0
 10
-122.972
 20
33.0095
 11
-123.16
 21
33.0187
  0
LINE
  8
0
 10
122.784
 20
33.024
 11
122.6
 21
33.0618
  0
LINE
  8
0
 10
122.6
 20
33.0618
 11
122.421
 21
33.1225
  0
LINE
  8
0
 10
122.421
 20
33.1225
 11
122.252
 21
33.2051
  0
LINE
  8
0
 10
122.252
 20
33.2051
 11
122.095
 21
33.3083
  0
LINE
  8
0
 10
122.095
 20
33.3083
 11
121.951
 21
33.4303
  0
LINE
  8
0
 10
121.951
 20
33.4303
 11
121.824
 21
33.5694
  0
LINE
  8
0
 10
121.824
 20
33.5694
 11
121.715
 21
33.7234
  0
LINE
  8
0
 10
121.715
 20
33.7234
 11
121.627
 21
33.8897
  0
LINE
  8
0
 10
121.627
 20
33.8897
 11
121.56
 21
34.0658
  0
LINE
  8
0
 10
121.56
 20
34.0658
 11
121.516
 21
34.2489
  0
LINE
  8
0
 10
121.516
 20
34.2489
 11
121.495
 21
34.4361
  0
LINE
  8
0
 10
121.495
 20
34.4361
 11
121.497
 21
34.6244
  0
LINE
  8
0
 10
121.497
 20
34.6244
 11
121.524
 21
34.811
  0
LINE
  8
0
 10
121.524
 20
34.811
 11
121.573
 21
34.9928
  0
LINE
  8
0
 10
121.573
 20
34.9928
 11
121.645
 21
35.1669
  0
LINE
  8
0
 10
121.645
 20
35.1669
 11
121.738
 21
35.3307
  0
LINE
  8
0
 10
121.738
 20
35.3307
 11
121.851
 21
35.4815
  0
LINE
  8
0
 10
121.851
 20
35.4815
 11
121.982
 21
35.617
  0
LINE
  8
0
 10
121.982
 20
35.617
 11
122.128
 21
35.7351
  0
LINE
  8
0
 10
122.128
 20
35.7351
 11
122.289
 21
35.8338
  0
LINE
  8
0
 10
122.289
 20
35.8338
 11
122.46
 21
35.9116
  0
LINE
  8
0
 10
122.46
 20
35.9116
 11
122.64
 21
35.9673
  0
LINE
  8
0
 10
122.64
 20
35.9673
 11
122.826
 21
36
  0
LINE
  8
0
 10
122.826
 20
36
 11
123.014
 21
36.0092
  0
LINE
  8
0
 10
123.014
 20
36.0092
 11
123.202
 21
35.9948
  0
LINE
  8
0
 10
123.202
 20
35.9948
 11
123.386
 21
35.9569
  0
LINE
  8
0
 10
123.386
 20
35.9569
 11
123.565
 21
35.8962
  0
LINE
  8
0
 10
123.565
 20
35.8962
 11
123.734
 21
35.8136
  0
LINE
  8
0
 10
123.734
 20
35.8136
 11
123.892
 21
35.7104
  0
LINE
  8
0
 10
123.892
 20
35.7104
 11
124.035
 21
35.5883
  0
LINE
  8
0
 10
124.035
 20
35.5883
 11
124.162
 21
35.4493
  0
LINE
  8
0
 10
124.162
 20
35.4493
 11
124.271
 21
35.2953
  0
LINE
  8
0
 10
124.271
 20
35.2953
 11
124.359
 21
35.129
  0
LINE
  8
0
 10
124.359
 20
35.129
 11
124.426
 21
34.9529
  0
LINE
  8
0
 10
124.426
 20
34.9529
 11
124.47
 21
34.7698
  0
LINE
  8
0
 10
124.47
 20
34.7698
 11
124.491
 21
34.5826
  0
LINE
  8
0
 10
124.491
 20
34.5826
 11
124.489
 21
34.3943
  0
LINE
  8
0
 10
124.489
 20
34.3943
 11
124.462
 21
34.2077
  0
LINE
  8
0
 10
124.462
 20
34.2077
 11
124.413
 21
34.0259
  0
LINE
  8
0
 10
124.413
 20
34.0259
 11
124.341
 21
33.8518
  0
LINE
  8
0
 10
124.341
 20
33.8518
 11
124.248
 21
33.688
  0
LINE
  8
0
 10
124.248
 20
33.688
 11
124.135
 21
33.5372
  0
LINE
  8
0
 10
124.135
 20
33.5372
 11
124.005
 21
33.4017
  0
LINE
  8
0
 10
124.005
 20
33.4017
 11
123.858
 21
33.2836
  0
LINE
  8
0
 10
123.858
 20
33.2836
 11
123.697
 21
33.1849
  0
LINE
  8
0
 10
123.697
 20
33.1849
 11
123.526
 21
33.1071
  0
LINE
  8
0
 10
123.526
 20
33.1071
 11
123.346
 21
33.0514
  0
LINE
  8
0
 10
123.346
 20
33.0514
 11
123.16
 21
33.0187
  0
LINE
  8
0
 10
123.16
 20
33.0187
 11
122.972
 21
33.0095
  0
LINE
  8
0
 10
122.972
 20
33.0095
 11
122.784
 21
33.024
  0
LINE
  8
0
 10
-79.3527
 20
14.1368
 11
-76.9268
 21
27.8945
  0
LINE
  8
0
 10
-76.9268
 20
27.8945
 11
-63.1691
 21
25.4687
  0
LINE
  8
0
 10
-63.1691
 20
25.4687
 11
-65.595
 21
11.7109
  0
LINE
  8
0
 10
-65.595
 20
11.7109
 11
-79.3527
 21
14.1368
  0
LINE
  8
0
 10
63.1691
 20
25.4687
 11
76.9268
 21
27.8945
  0
LINE
  8
0
 10
76.9268
 20
27.8945
 11
79.3527
 21
14.1368
  0
LINE
  8
0
 10
79.3527
 20
14.1368
 11
65.595
 21
11.7109
  0
LINE
  8
0
 10
65.595
 20
11.7109
 11
63.1691
 21
25.4687
  0
LINE
  8
0
 10
-60.6414
 20
10.8375
 11
-58.2155
 21
24.5952
  0
LINE
  8
0
 10
-58.2155
 20
24.5952
 11
-44.4577
 21
22.1694
  0
LINE
  8
0
 10
-44.4577
 20
22.1694
 11
-46.8836
 21
8.41161
  0
LINE
  8
0
 10
-46.8836
 20
8.41161
 11
-60.6414
 21
10.8375
  0
LINE
  8
0
 10
44.4577
 20
22.1694
 11
58.2155
 21
24.5952
  0
LINE
  8
0
 10
58.2155
 20
24.5952
 11
60.6414
 21
10.8375
  0
LINE
  8
0
 10
60.6414
 20
10.8375
 11
46.8836
 21
8.41161
  0
LINE
  8
0
 10
46.8836
 20
8.41161
 11
44.4577
 21
22.1694
  0
LINE
  8
0
 10
22.3246
 20
11.532
 11
34.423
 21
18.517
  0
LINE
  8
0
 10
34.423
 20
18.517
 11
41.408
 21
6.41862
  0
LINE
  8
0
 10
41.408
 20
6.41862
 11
29.3096
 21
-0.566345
  0
LINE
  8
0
 10
29.3096
 20
-0.566345
 11
22.3246
 21
11.532
  0
LINE
  8
0
 10
-41.408
 20
6.41862
 11
-34.423
 21
18.517
  0
LINE
  8
0
 10
-34.423
 20
18.517
 11
-22.3246
 21
11.532
  0
LINE
  8
0
 10
-22.3246
 20
11.532
 11
-29.3096
 21
-0.566345
  0
LINE
  8
0
 10
-29.3096
 20
-0.566345
 11
-41.408
 21
6.41862
  0
LINE
  8
0
 10
5.16447
 20
-6.03378
 11
14.1442
 21
4.66782
  0
LINE
  8
0
 10
14.1442
 20
4.66782
 11
24.8458
 21
-4.31187
  0
LINE
  8
0
 10
24.8458
 20
-4.31187
 11
15.8661
 21
-15.0135
  0
LINE
  8
0
 10
15.8661
 20
-15.0135
 11
5.16447
 21
-6.03378
  0
LINE
  8
0
 10
-24.8458
 20
-4.31187
 11
-14.1442
 21
4.66782
  0
LINE
  8
0
 10
-14.1442
 20
4.66782
 11
-5.16447
 21
-6.03378
  0
LINE
  8
0
 10
-5.16447
 20
-6.03378
 11
-15.8661
 21
-15.0135
  0
LINE
  8
0
 10
-15.8661
 20
-15.0135
 11
-24.8458
 21
-4.31187
  0
LINE
  8
0
 10
24.5244
 20
-19.3135
 11
24.3377
 21
-19.2886
  0
LINE
  8
0
 10
24.3377
 20
-19.2886
 11
24.1556
 21
-19.2405
  0
LINE
  8
0
 10
24.1556
 20
-19.2405
 11
23.9809
 21
-19.1699
  0
LINE
  8
0
 10
23.9809
 20
-19.1699
 11
23.8165
 21
-19.078
  0
LINE
  8
0
 10
23.8165
 20
-19.078
 11
23.6649
 21
-18.9663
  0
LINE
  8
0
 10
23.6649
 20
-18.9663
 11
23.5285
 21
-18.8363
  0
LINE
  8
0
 10
23.5285
 20
-18.8363
 11
23.4094
 21
-18.6904
  0
LINE
  8
0
 10
23.4094
 20
-18.6904
 11
23.3096
 21
-18.5306
  0
LINE
  8
0
 10
23.3096
 20
-18.5306
 11
23.2306
 21
-18.3596
  0
LINE
  8
0
 10
23.2306
 20
-18.3596
 11
23.1736
 21
-18.1801
  0
LINE
  8
0
 10
23.1736
 20
-18.1801
 11
23.1396
 21
-17.9948
  0
LINE
  8
0
 10
23.1396
 20
-17.9948
 11
23.1291
 21
-17.8067
  0
LINE
  8
0
 10
23.1291
 20
-17.8067
 11
23.1423
 21
-17.6188
  0
LINE
  8
0
 10
23.1423
 20
-17.6188
 11
23.1788
 21
-17.434
  0
LINE
  8
0
 10
23.1788
 20
-17.434
 11
23.2383
 21
-17.2553
  0
LINE
  8
0
 10
23.2383
 20
-17.2553
 11
23.3197
 21
-17.0854
  0
LINE
  8
0
 10
23.3197
 20
-17.0854
 11
23.4217
 21
-16.9271
  0
LINE
  8
0
 10
23.4217
 20
-16.9271
 11
23.5428
 21
-16.7828
  0
LINE
  8
0
 10
23.5428
 20
-16.7828
 11
23.681
 21
-16.6548
  0
LINE
  8
0
 10
23.681
 20
-16.6548
 11
23.8342
 21
-16.5451
  0
LINE
  8
0
 10
23.8342
 20
-16.5451
 11
23.9999
 21
-16.4555
  0
LINE
  8
0
 10
23.9999
 20
-16.4555
 11
24.1755
 21
-16.3874
  0
LINE
  8
0
 10
24.1755
 20
-16.3874
 11
24.3583
 21
-16.3418
  0
LINE
  8
0
 10
24.3583
 20
-16.3418
 11
24.5453
 21
-16.3195
  0
LINE
  8
0
 10
24.5453
 20
-16.3195
 11
24.7337
 21
-16.3208
  0
LINE
  8
0
 10
24.7337
 20
-16.3208
 11
24.9204
 21
-16.3458
  0
LINE
  8
0
 10
24.9204
 20
-16.3458
 11
25.1026
 21
-16.3939
  0
LINE
  8
0
 10
25.1026
 20
-16.3939
 11
25.2772
 21
-16.4644
  0
LINE
  8
0
 10
25.2772
 20
-16.4644
 11
25.4416
 21
-16.5563
  0
LINE
  8
0
 10
25.4416
 20
-16.5563
 11
25.5933
 21
-16.6681
  0
LINE
  8
0
 10
25.5933
 20
-16.6681
 11
25.7297
 21
-16.798
  0
LINE
  8
0
 10
25.7297
 20
-16.798
 11
25.8487
 21
-16.944
  0
LINE
  8
0
 10
25.8487
 20
-16.944
 11
25.9485
 21
-17.1037
  0
LINE
  8
0
 10
25.9485
 20
-17.1037
 11
26.0276
 21
-17.2747
  0
LINE
  8
0
 10
26.0276
 20
-17.2747
 11
26.0845
 21
-17.4543
  0
LINE
  8
0
 10
26.0845
 20
-17.4543
 11
26.1185
 21
-17.6396
  0
LINE
  8
0
 10
26.1185
 20
-17.6396
 11
26.129
 21
-17.8277
  0
LINE
  8
0
 10
26.129
 20
-17.8277
 11
26.1159
 21
-18.0156
  0
LINE
  8
0
 10
26.1159
 20
-18.0156
 11
26.0793
 21
-18.2004
  0
LINE
  8
0
 10
26.0793
 20
-18.2004
 11
26.0199
 21
-18.3791
  0
LINE
  8
0
 10
26.0199
 20
-18.3791
 11
25.9384
 21
-18.549
  0
LINE
  8
0
 10
25.9384
 20
-18.549
 11
25.8364
 21
-18.7073
  0
LINE
  8
0
 10
25.8364
 20
-18.7073
 11
25.7153
 21
-18.8516
  0
LINE
  8
0
 10
25.7153
 20
-18.8516
 11
25.5771
 21
-18.9796
  0
LINE
  8
0
 10
25.5771
 20
-18.9796
 11
25.424
 21
-19.0893
  0
LINE
  8
0
 10
25.424
 20
-19.0893
 11
25.2583
 21
-19.1789
  0
LINE
  8
0
 10
25.2583
 20
-19.1789
 11
25.0826
 21
-19.247
  0
LINE
  8
0
 10
25.0826
 20
-19.247
 11
24.8999
 21
-19.2926
  0
LINE
  8
0
 10
24.8999
 20
-19.2926
 11
24.7128
 21
-19.3148
  0
LINE
  8
0
 10
24.7128
 20
-19.3148
 11
24.5244
 21
-19.3135
  0
LINE
  8
0
 10
-24.8999
 20
-19.2926
 11
-25.0826
 21
-19.247
  0
LINE
  8
0
 10
-25.0826
 20
-19.247
 11
-25.2583
 21
-19.1789
  0
LINE
  8
0
 10
-25.2583
 20
-19.1789
 11
-25.424
 21
-19.0893
  0
LINE
  8
0
 10
-25.424
 20
-19.0893
 11
-25.5771
 21
-18.9796
  0
LINE
  8
0
 10
-25.5771
 20
-18.9796
 11
-25.7153
 21
-18.8516
  0
LINE
  8
0
 10
-25.7153
 20
-18.8516
 11
-25.8364
 21
-18.7073
  0
LINE
  8
0
 10
-25.8364
 20
-18.7073
 11
-25.9384
 21
-18.549
  0
LINE
  8
0
 10
-25.9384
 20
-18.549
 11
-26.0199
 21
-18.3791
  0
LINE
  8
0
 10
-26.0199
 20
-18.3791
 11
-26.0793
 21
-18.2004
  0
LINE
  8
0
 10
-26.0793
 20
-18.2004
 11
-26.1159
 21
-18.0156
  0
LINE
  8
0
 10
-26.1159
 20
-18.0156
 11
-26.129
 21
-17.8277
  0
LINE
  8
0
 10
-26.129
 20
-17.8277
 11
-26.1185
 21
-17.6396
  0
LINE
  8
0
 10
-26.1185
 20
-17.6396
 11
-26.0845
 21
-17.4543
  0
LINE
  8
0
 10
-26.0845
 20
-17.4543
 11
-26.0276
 21
-17.2747
  0
LINE
  8
0
 10
-26.0276
 20
-17.2747
 11
-25.9485
 21
-17.1037
  0
LINE
  8
0
 10
-25.9485
 20
-17.1037
 11
-25.8487
 21
-16.944
  0
LINE
  8
0
 10
-25.8487
 20
-16.944
 11
-25.7297
 21
-16.798
  0
LINE
  8
0
 10
-25.7297
 20
-16.798
 11
-25.5933
 21
-16.6681
  0
LINE
  8
0
 10
-25.5933
 20
-16.6681
 11
-25.4416
 21
-16.5563
  0
LINE
  8
0
 10
-25.4416
 20
-16.5563
 11
-25.2772
 21
-16.4644
  0
LINE
  8
0
 10
-25.2772
 20
-16.4644
 11
-25.1026
 21
-16.3939
  0
LINE
  8
0
 10
-25.1026
 20
-16.3939
 11
-24.9204
 21
-16.3458
  0
LINE
  8
0
 10
-24.9204
 20
-16.3458
 11
-24.7337
 21
-16.3208
  0
LINE
  8
0
 10
-24.7337
 20
-16.3208
 11
-24.5453
 21
-16.3195
  0
LINE
  8
0
 10
-24.5453
 20
-16.3195
 11
-24.3583
 21
-16.3418
  0
LINE
  8
0
 10
-24.3583
 20
-16.3418
 11
-24.1755
 21
-16.3874
  0
LINE
  8
0
 10
-24.1755
 20
-16.3874
 11
-23.9999
 21
-16.4555
  0
LINE
  8
0
 10
-23.9999
 20
-16.4555
 11
-23.8342
 21
-16.5451
  0
LINE
  8
0
 10
-23.8342
 20
-16.5451
 11
-23.681
 21
-16.6548
  0
LINE
  8
0
 10
-23.681
 20
-16.6548
 11
-23.5428
 21
-16.7828
  0
LINE
  8
0
 10
-23.5428
 20
-16.7828
 11
-23.4217
 21
-16.9271
  0
LINE
  8
0
 10
-23.4217
 20
-16.9271
 11
-23.3197
 21
-17.0854
  0
LINE
  8
0
 10
-23.3197
 20
-17.0854
 11
-23.2383
 21
-17.2553
  0
LINE
  8
0
 10
-23.2383
 20
-17.2553
 11
-23.1788
 21
-17.434
  0
LINE
  8
0
 10
-23.1788
 20
-17.434
 11
-23.1423
 21
-17.6188
  0
LINE
  8
0
 10
-23.1423
 20
-17.6188
 11
-23.1291
 21
-17.8067
  0
LINE
  8
0
 10
-23.1291
 20
-17.8067
 11
-23.1396
 21
-17.9948
  0
LINE
  8
0
 10
-23.1396
 20
-17.9948
 11
-23.1736
 21
-18.1801
  0
LINE
  8
0
 10
-23.1736
 20
-18.1801
 11
-23.2306
 21
-18.3596
  0
LINE
  8
0
 10
-23.2306
 20
-18.3596
 11
-23.3096
 21
-18.5306
  0
LINE
  8
0
 10
-23.3096
 20
-18.5306
 11
-23.4094
 21
-18.6904
  0
LINE
  8
0
 10
-23.4094
 20
-18.6904
 11
-23.5285
 21
-18.8363
  0
LINE
  8
0
 10
-23.5285
 20
-18.8363
 11
-23.6649
 21
-18.9663
  0
LINE
  8
0
 10
-23.6649
 20
-18.9663
 11
-23.8165
 21
-19.078
  0
LINE
  8
0
 10
-23.8165
 20
-19.078
 11
-23.9809
 21
-19.1699
  0
LINE
  8
0
 10
-23.9809
 20
-19.1699
 11
-24.1556
 21
-19.2405
  0
LINE
  8
0
 10
-24.1556
 20
-19.2405
 11
-24.3377
 21
-19.2886
  0
LINE
  8
0
 10
-24.3377
 20
-19.2886
 11
-24.5244
 21
-19.3135
  0
LINE
  8
0
 10
-24.5244
 20
-19.3135
 11
-24.7128
 21
-19.3148
  0
LINE
  8
0
 10
-24.7128
 20
-19.3148
 11
-24.8999
 21
-19.2926
  0
ENDSEC
  0
SECTION
  2
OBJECTS
  0
DICTIONARY
  0
ENDSEC
  0
EOF
